<?xml version="1.0" encoding="UTF-8" standalone="no"?><!DOCTYPE svg PUBLIC "-//W3C//DTD SVG 1.1//EN" "http://www.w3.org/Graphics/SVG/1.1/DTD/svg11.dtd"><svg width="100%" height="100%" viewBox="0 0 346 400" version="1.1" xmlns="http://www.w3.org/2000/svg" xmlns:xlink="http://www.w3.org/1999/xlink" xml:space="preserve" xmlns:serif="http://www.serif.com/" style="fill-rule:evenodd;clip-rule:evenodd;stroke-linejoin:round;stroke-miterlimit:2;"><path id="path3321" d="M346,300l-173,100l-50,-100l0,-200l50,-100l173,100l0,200Z" style="fill:#0168b1;fill-rule:nonzero;"/><path id="path3318" d="M173,400l-173,-100l0,-200l173,-100l0,400Z" style="fill:#019f62;fill-rule:nonzero;"/><path id="path3289" d="M158.724,350.823l-12.05,-7.288l-0.133,-6.659l-0.132,-6.659l-35.068,-20.53c-19.287,-11.291 -36.214,-21.181 -37.615,-21.978l-2.547,-1.448l-6.273,2.71l-6.273,2.71l-11.321,-7.082l-11.321,-7.082l-0.118,-14.091l-0.118,-14.091l5.362,-3.206l5.362,-3.206l0,-90.933l-5.139,-2.148l-5.139,-2.148l0.118,-13.827l0.118,-13.827l12.215,-6.837l12.215,-6.837l6.259,2.471l6.259,2.471l38.531,-21.284l38.531,-21.284l0.122,-6.883l0.123,-6.883l8.257,-4.439c4.541,-2.441 10.002,-5.36 12.135,-6.486l3.878,-2.048l11.184,6.585l11.185,6.586l0.019,12.621l39.505,23.091l39.505,23.091l4.951,-3.308l4.951,-3.308l11.993,8.003l11.993,8.003l-0.009,24.762l-5.351,3.713l-5.351,3.713l0.025,90.313l4.449,3.074l4.449,3.074l0,28.819l-11.988,6.522l-11.987,6.522l-5.753,-3.137c-3.164,-1.725 -5.954,-3.138 -6.2,-3.139c-0.246,-0.001 -17.819,9.707 -39.052,21.573l-38.606,21.575l-0.14,6.651l-0.14,6.651l-11.414,6.918c-6.277,3.805 -11.637,6.968 -11.91,7.03c-0.273,0.061 -5.919,-3.168 -12.547,-7.176l0.002,0Zm23.043,-1.754l10.43,-6.364l0.223,-6.69l0.223,-6.69l39.9,-22.291l39.9,-22.291l2.499,1.323c1.375,0.727 4.106,2.19 6.069,3.251l3.571,1.928l10.823,-5.946l10.823,-5.946l0,-26.047l-4.684,-3.274l-4.684,-3.274l0.109,-46.156l0.109,-46.156l5.467,-3.818l5.467,-3.818l0,-22.107l-10.705,-7.145c-5.887,-3.93 -10.915,-7.145 -11.173,-7.145c-0.257,0 -2.564,1.406 -5.126,3.125l-4.658,3.125l-40.625,-23.767l-40.625,-23.767l-0.003,-12.604l-9.976,-5.86c-5.487,-3.223 -10.109,-5.86 -10.271,-5.86c-0.161,0 -5.212,2.633 -11.223,5.85l-10.929,5.85l0,13.637l-39.562,21.861l-39.563,21.861l-4.51,-1.774c-2.481,-0.975 -5.314,-2.076 -6.296,-2.446l-1.785,-0.673l-11.158,6.236l-11.158,6.236l0,24.757l5.132,2.145l5.133,2.145l0.113,46.799l0.114,46.799l-11.175,6.677l0.236,25.412l9.819,6.178c5.4,3.398 10.076,6.291 10.39,6.429c0.314,0.138 3.226,-0.911 6.472,-2.33c3.245,-1.42 6.127,-2.581 6.403,-2.582c0.276,-0 17.792,10.125 38.924,22.5l38.422,22.501l0.128,6.627l0.128,6.627l10.935,6.64c6.014,3.652 11.061,6.645 11.216,6.651c0.155,0.006 4.975,-2.853 10.711,-6.353l-0.002,-0Zm-19.919,-3.451l-8.926,-5.348l-0.223,-6.755l-0.223,-6.755l-39.945,-23.414c-21.969,-12.878 -40.196,-23.519 -40.502,-23.647c-0.307,-0.128 -2.717,0.718 -5.356,1.88c-2.639,1.162 -5.423,2.38 -6.187,2.706c-1.366,0.582 -1.532,0.503 -9.819,-4.673l-8.43,-5.265l-0.109,-10.893l-0.108,-10.893l5.344,-3.124l5.344,-3.124l0.008,-49.165l0.009,-49.165l-5.133,-2.136l-5.133,-2.136l0.013,-20.132l9.239,-5.109c5.081,-2.81 9.547,-5.081 9.923,-5.047c0.377,0.034 3.276,1.084 6.444,2.334l5.759,2.273l20.573,-11.364c11.315,-6.25 29.811,-16.476 41.103,-22.724l20.53,-11.359l0.245,-13.811l5.679,-3.029c3.124,-1.666 7.286,-3.889 9.25,-4.941l3.57,-1.912l8.033,4.778l8.034,4.778l0.446,12.824l42.589,24.885l42.589,24.885l4.593,-3.082c2.526,-1.695 4.805,-3.082 5.063,-3.082c0.258,0 4.382,2.613 9.164,5.807l8.695,5.807l0,18.623l-5.356,3.717l-5.356,3.718l0,96.156l4.574,3.275l4.575,3.275l0.218,21.851l-8.835,4.798c-4.859,2.639 -9.044,4.798 -9.3,4.798c-0.256,0 -3.049,-1.412 -6.207,-3.137l-5.741,-3.137l-19.21,10.705c-10.565,5.888 -29.453,16.419 -41.972,23.403l-22.762,12.698l-0.123,6.703l-0.123,6.703l-8.481,5.164c-4.664,2.84 -8.626,5.164 -8.803,5.163c-0.178,-0.001 -4.339,-2.408 -9.249,-5.35l0.002,-0Zm16.908,-1.823l7.393,-4.498l0.123,-6.733l0.123,-6.733l43.042,-24.016l43.042,-24.016l4.712,2.523c2.592,1.388 5.277,2.864 5.967,3.281l1.255,0.758l7.895,-4.304l7.895,-4.304l0.121,-9.307c0.085,-6.585 -0.031,-9.49 -0.399,-9.933c-0.286,-0.344 -2.399,-1.936 -4.695,-3.537l-4.176,-2.911l0.009,-98.812l5.351,-3.713l5.351,-3.713l0,-16.001l-7.808,-5.203l-7.807,-5.203l-3.685,2.446c-2.027,1.345 -4.189,2.774 -4.806,3.175c-1.111,0.722 -1.521,0.495 -44.854,-24.828l-43.732,-25.557l-0.223,-6.399l-0.223,-6.399l-6.918,-4.14l-6.918,-4.14l-5.409,2.858c-2.975,1.572 -6.59,3.522 -8.033,4.333l-2.625,1.475l-0.446,13.772l-42.107,23.282l-42.107,23.282l-4.532,-1.782c-2.493,-0.98 -5.335,-2.083 -6.317,-2.45l-1.785,-0.668l-8.257,4.636l-8.257,4.636l0,17.249l5.011,2.071l5.011,2.071l0.019,101.315l-5.244,3.146l-5.244,3.146l-0.121,9.419l-0.12,9.419l7.549,4.732l7.549,4.732l6.23,-2.718l6.23,-2.718l41.46,24.289l41.46,24.289l0.123,6.652l0.123,6.652l7.903,4.798c4.346,2.639 8.038,4.798 8.204,4.798c0.166,0 3.629,-2.024 7.695,-4.498l-0.001,-0Zm-14.23,-3.569l-5.802,-3.53l-0.223,-6.794l-0.223,-6.794l-42.846,-25.105c-23.565,-13.808 -43.147,-25.106 -43.515,-25.108c-0.368,-0.002 -3.292,1.161 -6.496,2.583l-5.827,2.586l-5.777,-3.623l-5.777,-3.623l-0.11,-7.343l-0.11,-7.343l6.135,-3.177l6.135,-3.177l0,-106.013l-4.909,-2.069l-4.909,-2.069l-0.248,-12.231l3.694,-2.379c2.032,-1.308 4.333,-2.754 5.113,-3.212l1.419,-0.834l6.03,2.347c3.316,1.291 6.308,2.28 6.649,2.197c0.341,-0.082 20.638,-11.259 45.105,-24.836l44.485,-24.687l0,-13.706l5.891,-3.16c3.24,-1.738 6.001,-3.157 6.137,-3.153c0.135,0.003 2.556,1.367 5.379,3.029l5.132,3.022l0.223,6.454l0.223,6.454l45.597,26.611l45.597,26.611l4.723,-3.133l4.723,-3.133l6.017,3.969l6.017,3.969l-0.019,12.05l-5.449,3.803l-5.449,3.803l-0.114,51.142l-0.113,51.142l4.688,3.267l4.688,3.267l0,15.241l-5.914,3.256l-5.913,3.256l-3.347,-1.828c-1.841,-1.005 -4.581,-2.454 -6.09,-3.22l-2.742,-1.393l-18.011,10.026c-9.906,5.514 -30.104,16.743 -44.884,24.954l-26.873,14.928l-0.034,13.528l-5.525,3.389c-3.038,1.864 -5.8,3.373 -6.137,3.352c-0.337,-0.02 -3.223,-1.626 -6.414,-3.567l0,-0Zm11.36,-1.782l4.484,-2.709l0.009,-13.55l44.435,-24.77c24.44,-13.623 45.204,-25.151 46.143,-25.617l1.707,-0.847l5.898,3.225l5.898,3.225l2.516,-1.352c1.384,-0.744 3.568,-1.914 4.855,-2.601l2.339,-1.249l0.006,-12.599l-4.688,-3.267l-4.688,-3.267l0.114,-52.454l0.113,-52.454l5.47,-3.809l5.47,-3.809l-0.229,-9.372l-4.79,-3.251l-4.79,-3.251l-4.66,3.127l-4.66,3.127l-46.88,-27.323l-46.88,-27.323l-0.016,-6.339l-0.017,-6.339l-4.253,-2.538c-3.219,-1.921 -4.446,-2.441 -5.05,-2.14c-0.438,0.218 -2.637,1.384 -4.886,2.591l-4.089,2.193l-0.123,6.893l-0.122,6.893l-45.7,25.39c-25.135,13.965 -45.845,25.39 -46.023,25.39c-0.177,0 -3.04,-1.075 -6.361,-2.39l-6.039,-2.39l-4.062,2.613l-4.062,2.613l0,9.234l5.244,2.229l5.244,2.229l0.113,54.264l0.113,54.264l-6.362,3.285l-6.362,3.285l0,11.962l4.74,2.991l4.74,2.991l5.972,-2.656c4.552,-2.025 6.21,-2.57 6.975,-2.294c0.552,0.199 20.576,11.81 44.499,25.802l43.496,25.439l0.02,6.702l0.02,6.702l5.021,3.001c2.762,1.651 5.162,3.003 5.335,3.005c0.173,0.002 2.332,-1.215 4.798,-2.705l0.002,0Z" style="fill:#fff;fill-rule:nonzero;"/><path id="path2413" d="M212.774,253.828l-39.914,-28.533l-39.989,28.428l14.802,-46.778l-39.394,-29.247l49.062,-0.377l15.642,-46.504l15.52,46.544l49.061,0.506l-39.47,29.144l14.679,46.816Z" style="fill:#fff;fill-rule:nonzero;"/><path id="path2415" d="M170.466,98.764c-53.274,1.393 -96.35,44.397 -97.745,97.712l12.302,0c-0.025,0.834 -0.04,1.677 -0.042,2.516c-0.002,0.948 0.014,1.899 0.042,2.84l-12.302,0c1.399,53.266 44.44,96.322 97.745,97.724l0,-5.356c-48.605,-1.344 -88.05,-39.15 -92.055,-87.012l6.946,0c3.986,43.994 40.379,78.754 85.109,80.094l0,-5.356c-41.827,-1.327 -75.788,-33.654 -79.739,-74.738l6.974,0c3.925,37.203 34.826,66.458 72.765,67.778l0,-5.356c-36.828,-1.377 -66.391,-30.978 -67.772,-67.778l-12.302,0c-0.03,-0.936 -0.057,-1.882 -0.056,-2.826c0.001,-0.845 0.016,-1.691 0.042,-2.53l12.316,0c1.366,-36.843 30.959,-66.395 67.772,-67.766l0,-5.37c-37.911,1.318 -68.836,30.559 -72.765,67.786l-6.974,0c3.953,-41.111 37.942,-73.406 79.739,-74.732l0,-5.342c-44.7,1.339 -81.127,36.047 -85.109,80.074l-6.946,0c4,-47.898 43.483,-85.662 92.055,-87.006l0,-5.356l-0,0Zm5.356,0l0,5.356c51.351,1.42 92.48,43.519 92.39,95.193c-0.087,49.734 -38.376,90.482 -87.034,94.58l0,-19.304c38.005,-4.038 67.997,-36.229 68.065,-75.304c0.068,-39.152 -29.965,-71.502 -68.065,-75.569l0,-6.974c41.992,4.08 74.835,39.505 74.76,82.557c-0.072,41.116 -30.11,75.174 -69.404,81.58l0,5.412c42.214,-6.477 74.683,-42.977 74.76,-86.992c0.084,-47.792 -38.002,-86.839 -85.472,-88.261l0,17.672c37.766,1.407 68.131,32.464 68.065,70.562c-0.066,38.012 -30.411,68.933 -68.065,70.338l0,29.946c54.096,-1.421 97.651,-45.772 97.746,-100.228c0.095,-54.574 -43.492,-99.135 -97.746,-100.563Z" style="fill:#fff;fill-rule:nonzero;"/></svg>