<?xml version="1.0" encoding="UTF-8" standalone="no"?>
<!DOCTYPE svg PUBLIC "-//W3C//DTD SVG 1.1//EN" "http://www.w3.org/Graphics/SVG/1.1/DTD/svg11.dtd">
<svg width="100%" height="100%" viewBox="0 0 438 517" version="1.1" xmlns="http://www.w3.org/2000/svg" xmlns:xlink="http://www.w3.org/1999/xlink" xml:space="preserve" xmlns:serif="http://www.serif.com/" style="fill-rule:evenodd;clip-rule:evenodd;stroke-linejoin:round;stroke-miterlimit:2;">
    <path id="JP-23" d="M260.24,277.879L260.07,277.529L260.57,275.759L259.71,274.359L259.82,272.899L260.28,271.529L260.03,271.209L259.14,271.569L258,271.219L257.03,269.649L256.71,268.439L256.93,266.249L258.62,263.279L259.9,263.429L261.56,262.929L263.04,261.799L263.02,262.369L264.2,263.239L264.17,263.889L264.67,264.099L264.58,264.579L264.85,264.899L265.17,265.049L265.47,264.839L266.41,265.229L266.93,265.939L267.78,265.769L268.7,265.039L269.33,265.029L270.08,265.499L270.01,265.739L270.85,265.789L270.83,266.099L271.82,266.599L273.54,265.199L274.34,265.119L274.02,265.949L274.66,266.759L274.65,267.269L275.91,267.009L276.76,266.459L278.32,266.759L278.54,267.149L279.38,266.879L279.07,267.859L279.59,268.359L279.01,268.929L279.09,269.399L278.63,269.639L277.17,271.639L277.14,272.699L275.86,274.629L273.11,276.159L272.68,277.389L272.84,279.709L269.43,280.499L266,281.729L263.97,281.999L263.71,281.789L264.51,280.079L265,280.129L265.25,280.699L267.61,279.679L268.47,279.149L268.37,278.709L268.82,278.349L269.3,278.499L269.52,278.309L269.73,277.169L269.16,276.469L267.47,276.159L266.95,276.619L266.71,277.549L265.9,276.979L263.77,277.229L262.35,275.859L262.66,274.779L262.22,274.589L261.8,275.179L261.53,277.399L262.55,278.329L262.7,279.209L261.01,278.609L260.24,277.879Z" style="fill-rule:nonzero;"/>
    <path id="JP-05" d="M323.49,155.409L322.8,152.659L321.41,151.039L321.92,150.229L322.66,150.459L323.26,151.349L323.45,150.209L323.19,149.799L323.59,149.189L323.78,147.789L323.44,146.379L322.37,145.939L321.92,146.369L321.38,147.179L320.77,149.239L321.31,149.659L321.23,150.919L320.48,150.629L319.59,150.779L319.4,151.029L319.57,151.879L317.47,151.789L316.51,149.949L316.29,148.649L316.43,147.919L318.36,149.239L319.03,149.029L320.51,147.569L321.38,145.999L322.18,143.609L322.78,140.609L322.81,138.939L321.09,137.129L321.6,137.019L322.73,137.369L322.99,136.499L323.76,136.149L324.3,136.469L324.51,136.959L325.99,136.829L326.8,137.109L328.15,136.729L329.01,136.909L329.51,135.909L330.82,135.799L331.09,136.639L331.89,136.639L333.04,137.829L334.04,136.989L335.29,137.829L336.08,137.199L336.84,137.149L337.56,136.529L338.27,136.629L338.51,135.549L339.74,135.059L339.58,137.409L341.71,137.179L341.99,139.019L341.58,139.289L341.08,140.509L341.22,141.819L340.82,142.389L340.21,142.609L339.4,143.719L339.8,144.209L339.65,145.769L339.13,146.229L339.08,148.909L339.7,151.409L339.14,151.589L338.65,151.109L337.83,151.559L337.9,152.619L339.02,153.279L338.2,154.749L337.81,154.889L338.47,156.059L338.6,157.139L338.09,158.329L337.82,158.299L337.21,159.159L336.79,159.269L337,159.989L336.57,161.329L335.79,162.179L335.84,162.989L335.39,163.109L335.34,163.759L335.73,163.849L336.33,165.099L336.18,166.019L336.71,166.769L337.83,167.539L337.5,168.599L338.35,169.039L337.75,169.339L337.28,170.169L337.55,170.389L337.27,171.359L338.24,171.739L338.38,172.139L337.59,173.509L337.67,174.659L336.96,174.829L335.32,176.399L333.56,176.759L333.29,176.579L333.05,176.129L331.53,175.599L330.95,173.799L329.89,173.719L329.54,172.949L328.46,173.219L325.38,172.279L324.59,171.579L323.88,171.399L323.68,170.229L322.7,170.469L322.33,170.929L319.82,170.519L320.5,169.049L320.27,168.119L320.66,167.339L320.62,166.809L321.01,166.199L321.71,166.089L322.65,163.699L323.45,159.509L323.49,155.409Z" style="fill-rule:nonzero;"/>
    <path id="JP-02" d="M344.62,125.649L345.54,124.819L346.12,123.769L346.69,121.919L346.92,119.469L347.51,118.329L346.79,116.269L345.93,115.229L345.14,115.149L344.29,116.759L343.16,117.569L341.64,117.149L340.97,117.799L339.16,118.139L338.31,119.009L337.38,118.539L338.07,113.949L338.49,113.289L338.8,111.449L340.23,109.419L340.01,108.599L340.31,108.049L342.03,109.619L343.35,109.729L344.24,110.229L345.81,112.199L347.27,113.049L348.16,113.159L349.16,112.789L351.2,111.119L349.71,117.969L349.61,123.059L350.16,128.609L351.53,133.469L352.71,134.559L353.38,134.169L353.61,134.719L355.52,136.609L355.05,137.149L353.66,137.769L353.55,138.599L352.66,139.289L351.42,138.519L350.74,138.609L349.02,139.709L348.34,138.629L346.38,140.119L344.86,140.499L344.12,140.999L344.08,141.719L343.62,141.739L342.62,142.519L341.68,142.509L341.22,141.829L341.08,140.519L341.58,139.299L341.99,139.029L341.71,137.189L339.58,137.419L339.74,135.069L338.51,135.559L338.27,136.639L337.56,136.539L336.84,137.159L336.08,137.209L335.29,137.839L334.04,136.999L333.04,137.839L331.89,136.649L331.09,136.649L330.82,135.809L329.51,135.919L329.01,136.919L328.15,136.739L326.8,137.119L325.99,136.839L324.51,136.969L324.3,136.479L323.76,136.159L322.99,136.509L322.73,137.379L321.6,137.029L321.09,137.139L321.35,135.359L321.16,133.919L320.71,133.059L319.75,133.109L319.6,132.289L321.38,130.869L322.4,129.069L323.05,128.629L323.66,128.379L324.89,129.069L326.32,127.999L327.13,127.899L327.55,127.289L328.57,123.679L328.64,119.879L327.95,119.129L327.25,119.049L327.42,118.659L328.3,118.889L328.68,118.459L329.08,115.509L330.17,116.199L330.84,117.189L331.48,117.549L332.15,117.359L333.15,116.349L334.24,116.729L334.89,117.449L334.78,119.719L335.17,122.239L335.9,125.519L336.83,126.709L338.16,126.599L339.35,125.319L339.57,124.759L339.35,123.519L339.68,122.069L341.17,122.609L341.85,123.569L341.67,124.119L342.4,124.109L343.32,124.559L343.85,125.439L344.62,125.649Z" style="fill-rule:nonzero;"/>
    <path id="JP-12" d="M319.15,263.119L319.29,262.909L320.25,263.329L320.64,262.859L320.34,262.139L320.43,261.559L321.78,261.179L321.66,260.669L321.94,260.539L322.18,260.919L323.69,258.759L324.26,259.209L324.49,258.859L323.95,257.569L323.19,256.739L321.98,255.549L321.29,255.839L320.94,255.079L319.86,252.819L320.2,252.559L320.42,251.229L318.74,248.009L318.69,246.969L317.98,245.559L318.4,245.589L318.73,246.429L320.36,248.439L321.08,248.679L321.28,249.389L322.32,250.089L324.78,250.949L325.36,251.669L326.38,251.259L327.24,251.369L327.83,250.969L328.63,251.199L329.49,250.379L331.5,249.859L332.58,250.379L333.49,250.339L334.62,251.309L335.85,251.569L336.96,253.099L339.46,254.639L339.35,255.289L338.59,254.779L337.09,255.279L336.29,255.059L335.54,255.249L332.82,257.319L331.43,258.889L330.31,261.049L330.02,263.369L330.49,264.599L329.88,267.449L329.21,267.589L328.74,268.609L328.46,268.709L326.31,269.329L326.08,268.889L324.8,269.079L323.99,270.179L322.02,271.539L321.51,272.749L321.61,273.329L321.16,273.939L320.12,274.369L318.95,274.159L318.76,273.439L317.45,272.769L317.48,272.479L318.28,272.589L319.53,272.029L318.75,270.369L319.21,269.869L318.85,269.509L319.14,268.809L318.73,268.239L318.74,267.409L319.66,266.699L319.74,266.179L319.3,265.429L319.36,265.039L318.61,264.579L319.15,263.119Z" style="fill-rule:nonzero;"/>
    <path id="JP-38" d="M174.07,312.769L174.3,312.339L174.65,312.079L175,312.119L175.02,311.919L174.73,311.789L174.35,311.629L173.88,311.789L173.6,312.019L173.16,311.769L172.96,312.149L172.56,312.019L172.42,311.789L171.96,311.789L172.09,311.339L172.26,311.209L172.4,311.109L172.71,310.989L172.68,310.819L172.64,310.569L172.34,310.599L172.12,310.229L172.47,309.939L172.4,309.579L172.13,309.509L172.48,309.189L172.64,309.149L172.86,308.879L172.95,308.419L172.72,308.549L172.32,308.499L172.49,308.089L171.98,308.189L171.65,307.829L171.42,307.889L171.07,308.179L170.21,308.779L169.69,308.919L169.36,309.289L168.26,309.619L167.69,310.149L167.53,310.459L167.22,310.739L166.71,310.799L166.68,310.559L167.03,310.339L167.04,310.169L166.53,310.189L165.68,310.899L165.17,311.209L164.92,311.219L167.07,309.409L167.58,309.109L168.24,308.749L168.81,308.829L169.12,308.499L169.43,308.359L169.89,308.319L170.13,308.179L170.23,307.999L171.39,307.479L172.25,306.839L173,306.439L173.21,305.939L174.04,304.949L174.67,304.489L176.22,303.929L177.44,303.019L177.65,302.779L178.02,301.799L178.47,301.399L178.24,300.679L178.23,299.689L178.43,298.649L178.67,297.989L179.1,298.159L179.53,297.869L179.87,296.649L179.94,296.029L181.71,294.359L182.82,294.189L182.76,293.739L183.02,293.569L182.87,293.009L183.23,292.409L183.98,293.279L184.96,294.689L185.68,296.169L186.06,296.769L186.19,297.199L186.69,297.559L187.64,297.239L189.02,296.899L189.39,296.799L189.27,296.339L190.47,296.139L190.71,295.879L191.09,295.929L191.46,296.259L192.16,295.959L192.84,296.059L193.32,296.159L194.05,296.489L194.55,296.419L195.24,295.919L195.44,295.579L195.58,295.139L195.74,295.059L196.14,294.789L196.47,295.059L197.42,295.189L198.03,295.529L197.74,296.209L198.01,296.699L198.01,297.739L197.79,298.349L197.45,298.639L197.04,298.649L196.39,298.639L195.92,298.969L195.41,298.629L195.2,298.669L194.64,299.439L194.43,299.709L194.23,299.869L192.16,299.939L191.36,299.809L189.89,299.829L189.69,299.999L189.47,300.729L189.29,300.839L188.77,301.029L188.43,300.689L188.23,300.709L187.97,301.399L187.58,302.189L187.18,302.589L186.83,303.089L186.77,303.639L186.55,303.919L185.94,304.019L185.76,304.669L185.51,305.399L185.32,305.859L185.61,306.149L185.65,306.669L185.29,306.939L184.72,307.819L184.71,308.089L183.51,308.429L183.3,308.299L182.64,308.379L181.34,308.169L180.93,308.279L180.61,308.579L180.96,308.899L181.11,309.839L181.26,310.039L181.46,310.039L181.69,310.759L182.14,310.899L182.41,311.259L182.45,311.829L182.37,312.049L181.57,312.509L180.36,312.929L180.05,313.449L179.87,314.589L179.44,314.619L179.27,314.769L179.13,315.239L178.42,316.139L178.23,316.209L177.28,315.289L177.17,315.019L176.97,315.089L176.83,315.379L177.12,315.999L177.09,316.259L177.56,316.769L177.77,316.819L177.86,317.119L177.66,318.039L177.96,318.349L178.17,319.289L178.16,320.619L177.75,320.719L177.7,321.099L177.38,320.979L176.44,321.329L176.3,321.059L176.05,320.719L175.96,320.539L175.5,320.699L175.31,320.789L175.05,320.849L175.03,321.139L175.05,321.269L174.86,321.529L174.51,321.499L174.24,321.509L173.99,321.469L174.07,321.099L173.75,320.719L173.85,320.599L174.21,320.559L174.56,320.299L173.93,319.959L174.21,319.729L174.45,319.869L174.6,319.909L174.74,319.809L174.53,319.419L174.63,319.159L174.33,319.019L174.21,318.979L174.2,318.149L173.92,318.109L173.57,318.439L173.15,318.199L172.77,318.369L172.64,318.449L172.55,318.659L172.5,318.949L172.14,318.769L172.47,318.369L172.49,317.989L172.64,317.639L172.86,317.589L173.06,317.699L173.2,318.039L173.53,317.979L174.1,317.759L174.23,317.489L173.93,317.369L174.14,316.979L174.52,316.379L174.5,316.049L174.11,315.959L173.96,315.969L173.74,316.049L173.59,316.179L173.37,316.039L173.42,315.789L173.06,315.619L173.21,315.289L173.5,314.939L172.98,314.379L173.49,314.579L174.18,314.919L174.47,315.249L174.82,315.269L174.74,314.899L174.54,314.489L174.85,314.219L175.41,314.259L175.64,314.229L175.73,314.069L175.59,313.729L175.31,313.769L174.93,313.429L175.32,313.219L175.36,312.909L174.56,312.959L174.07,312.769Z" style="fill-rule:nonzero;"/>
    <path id="JP-18" d="M238.26,258.189L239.42,258.909L239.49,259.289L239.8,259.249L240.22,258.989L239.57,258.179L239.77,258.049L240.31,258.409L240.68,257.759L240.1,257.309L239.85,256.469L240.44,256.619L240.87,257.309L241.63,256.909L241.78,257.259L243,256.899L243.23,256.469L242.98,256.149L243.04,255.199L242.61,254.519L243.85,253.529L244.24,254.129L244.01,255.559L244.37,256.099L244.97,255.989L245.45,254.469L245.47,253.189L244.9,252.059L243.38,250.539L243.46,249.439L242.67,248.249L243.73,246.979L244.08,245.489L246.18,242.399L245.94,241.739L246.79,241.739L248.32,240.649L250,242.239L250.25,243.489L250.66,243.869L251.56,243.739L252.21,244.499L252.68,244.549L254.43,244.129L256.29,245.589L256.53,246.209L258.42,245.729L258.63,246.219L258.14,246.589L257.89,247.979L258.39,248.349L258.34,248.879L259.13,249.159L259,249.649L259.64,250.179L259.94,251.399L259.31,251.859L259.14,252.639L257.8,252.619L256.67,253.109L256.25,252.589L255.79,253.039L255.27,252.869L254.78,253.309L253.96,253.099L253.4,253.869L253.1,253.359L252.04,253.379L250.87,252.959L249.97,253.439L249.96,254.409L248.97,256.049L247.16,255.109L246.49,255.239L246.18,255.909L247.01,257.669L246.88,258.419L245.78,258.099L245.43,259.169L244.14,259.299L243.69,260.169L243.23,260.269L242.46,259.499L241.42,262.269L240.85,262.549L240.5,262.149L239.84,262.139L239.79,262.639L239.42,262.739L238.97,263.479L237.6,263.739L236.09,263.149L234.36,262.959L234.23,262.089L232.92,260.879L233.21,259.879L232.69,259.459L233.1,258.559L233.98,258.729L233.77,259.819L233.95,260.069L236.53,260.459L238.31,260.079L238.58,259.199L237.93,259.469L237.9,258.969L237.33,258.859L237.85,258.269L238.26,258.189Z" style="fill-rule:nonzero;"/>
    <path id="JP-40" d="M133.14,303.079L134.38,301.729L134.52,301.129L134.4,300.769L134.07,300.779L134.01,300.099L134.57,300.049L134.82,299.239L135.67,298.719L135.59,298.329L136.37,298.299L136.62,298.599L137.66,298.489L138.34,298.089L139.05,297.149L140.15,297.599L140.6,297.259L142.39,297.649L142.82,298.229L143.56,297.949L143.88,297.179L145.04,296.419L145.44,296.729L144.72,298.079L144.89,299.039L144.1,299.739L144.32,300.199L144.98,300.069L145.53,302.599L146.93,304.699L147.49,304.419L148.57,305.179L148.42,305.549L148.72,306.349L148.33,306.869L148.46,307.329L146.55,307.439L145.58,307.169L144.65,307.399L143.04,308.779L142.74,310.429L142.25,310.559L141.78,311.249L142.08,311.409L142.37,312.359L142.23,312.999L141.71,313.259L141.59,313.639L141.95,313.829L141.92,314.449L142.76,315.179L142.28,316.559L141.93,316.809L140.4,316.289L139.73,315.679L138.92,315.719L138.76,315.319L138.23,316.759L136.73,316.589L135.11,318.079L135.29,319.149L133.15,319.069L133.63,317.969L133.31,317.169L132.57,316.389L132.6,315.979L132.23,315.789L132.4,314.559L132.99,313.519L134.84,312.099L135.35,311.239L135.86,311.269L135.88,309.019L135.47,308.809L134.73,309.059L133.74,310.009L133.12,309.299L132.35,309.129L130.65,308.059L130.17,308.279L129.31,308.039L128.62,308.359L125.99,308.279L126.14,307.599L127.75,307.279L128.29,306.639L128.48,306.089L128.06,306.389L127.91,305.939L127.64,305.779L127.19,306.019L126.97,305.619L128.16,305.269L128.45,304.889L128.33,304.509L129.18,304.209L129.33,303.599L129.92,303.999L129.67,304.369L129.85,304.789L130.67,304.929L130.78,305.629L131.26,305.549L131.42,305.209L132.08,305.279L133.12,304.789L133.24,303.949L133.81,303.719L133.73,303.119L133.14,303.079Z" style="fill-rule:nonzero;"/>
    <path id="JP-07" d="M341.41,223.749L340.79,224.559L338.3,225.749L337.91,226.409L337.95,226.889L334.52,225.849L333.95,224.819L333.61,225.279L334.07,226.579L332.95,227.069L331.49,228.469L331.06,227.899L329.92,227.479L329.59,226.319L328.77,226.069L328.01,225.049L327.46,225.019L327.13,224.689L327.29,222.829L326.44,222.879L326.21,221.939L325.19,220.959L322.8,219.959L320.39,219.679L319.03,220.269L318.85,221.179L316.06,222.049L315.8,222.469L315.01,222.659L314.78,223.099L314.15,223.189L313.23,223.929L311.87,224.169L311.16,225.189L310.22,225.619L307.92,224.899L307.4,225.099L307.39,224.729L307.63,224.309L307.52,222.969L307.74,222.189L307.32,220.799L307.67,219.519L307.2,218.589L306.52,218.429L305.93,217.629L306.9,216.229L307.1,215.069L307.24,213.879L306.57,213.319L307.14,212.399L309.29,212.159L309.84,211.869L310.52,212.109L310.84,210.919L311.25,210.759L311.72,210.719L312.11,211.039L312.48,210.799L313.74,211.019L314.22,210.789L313.84,209.969L313.93,209.159L313.51,208.129L313.54,207.399L315.07,206.359L314.94,206.119L315.65,204.819L317.23,203.109L318.02,202.929L318.65,203.609L319.59,203.029L320.2,203.419L320.83,203.349L321.16,202.999L322.13,204.679L323.36,204.219L324.83,205.339L325.57,204.779L326.87,205.039L328.2,203.429L327.65,203.019L327.61,201.009L327.91,199.299L329.3,199.959L330.43,199.389L331.57,200.079L331.94,201.169L334.59,200.899L335.41,201.179L335.97,201.639L335.79,202.779L336.07,203.529L336.7,204.029L337.91,204.299L338.06,204.139L337.59,203.749L339.17,203.809L339.3,203.589L339.27,201.419L339.99,201.149L340.68,201.329L341.06,202.609L341.77,203.039L341.82,204.319L342.26,205.069L342.81,211.099L342.81,214.409L341.41,223.749ZM337.98,226.909L338.01,226.919L337.98,226.909Z" style="fill-rule:nonzero;"/>
    <path id="JP-21" d="M251.73,266.759L251.01,266.069L251.33,265.859L251.35,264.929L251.67,264.409L251.71,263.069L252.26,262.629L251.73,261.779L251.82,260.779L251.19,260.139L251.43,259.249L250.88,258.539L250.57,259.039L249.79,258.749L249.91,257.149L249.25,257.079L248.99,256.009L249.97,254.369L249.98,253.399L250.88,252.919L252.05,253.339L253.11,253.329L253.41,253.839L253.97,253.069L254.79,253.289L255.27,252.849L255.79,253.019L256.25,252.579L256.66,253.099L257.79,252.609L259.14,252.629L259.31,251.849L259.93,251.389L259.63,250.169L258.99,249.649L259.11,249.159L258.32,248.879L258.37,248.349L257.88,247.979L258.12,246.589L258.62,246.219L258.41,245.729L258.91,244.639L258.68,243.899L259.29,243.669L260.23,241.999L260.19,241.609L259.43,241.179L259.18,240.599L259.76,240.519L260.05,239.459L260.82,238.899L261.07,239.489L261.42,239.129L262.34,239.639L262.68,240.409L262.42,241.139L262.76,241.219L264.15,239.999L264.4,238.849L266.48,236.829L267.03,236.809L267.28,237.249L268.74,236.559L269.33,236.609L269.37,237.489L269.58,237.529L270.93,236.729L271.21,237.509L272.34,237.859L273.05,237.519L273.89,238.339L274.83,238.409L274.96,238.919L275.99,239.579L276.08,240.109L275.99,240.889L274.6,242.699L274.98,243.249L274.93,243.769L274.18,244.479L274.17,245.289L274.63,245.789L275.35,246.039L274.96,247.609L273.96,248.369L273.59,249.289L273.15,249.389L272.63,250.449L272.21,250.519L271.88,250.189L270.73,250.539L270.38,251.599L269.79,251.849L269.68,252.389L269.97,252.779L271.01,252.789L271.06,253.299L272.29,253.669L273.09,255.459L273.87,256.159L273.44,257.439L273.83,257.889L273.76,258.989L274.07,259.539L275.14,259.219L275.71,259.759L275.71,260.669L275.06,261.369L275.77,262.349L274.9,262.639L275.16,263.909L274.32,264.559L274.33,265.089L273.53,265.169L271.81,266.569L270.82,266.079L270.84,265.759L270,265.719L270.07,265.479L269.32,264.999L268.69,265.019L267.77,265.749L266.92,265.919L266.4,265.209L265.46,264.819L265.16,265.029L264.84,264.879L264.57,264.559L264.66,264.069L264.17,263.869L264.2,263.219L263.02,262.349L263.04,261.789L261.55,262.909L259.89,263.409L258.62,263.259L256.93,266.239L256.71,268.429L255.63,268.309L253.94,265.809L251.73,266.759Z" style="fill-rule:nonzero;"/>
    <path id="JP-10" d="M315.67,242.529L315.36,243.109L314.87,243.289L314.35,242.809L311.81,243.289L310,241.949L309.14,242.159L308.17,241.869L307.57,242.019L305.88,241.159L305.18,241.109L303.95,243.079L303.93,244.009L303.51,244.769L301.98,244.839L301.52,245.619L300,246.019L299.08,247.029L297.85,247.049L297.1,248.059L296.74,248.149L296.38,247.629L295.77,247.439L295.39,245.669L295.72,245.319L295.44,244.649L294.79,244.569L294.35,243.809L294.51,243.639L294.97,243.969L295.42,243.489L295.45,242.679L295.03,242.239L294.8,241.129L295.83,240.449L295.9,238.969L295.61,237.819L294.78,237.569L294.08,237.669L293.64,238.069L292.76,237.819L292.55,238.129L292.12,238.059L290.87,237.319L290.81,236.019L291.41,234.359L291.39,233.369L292.35,232.189L293.31,232.029L293.32,230.939L295.11,230.579L296.66,229.749L296.91,229.919L297.27,229.289L298.47,229.729L299.26,229.059L299.16,228.059L299.8,228.089L301.29,227.469L301.04,227.029L301.33,226.079L302.18,226.189L302.27,225.929L302,223.999L303.64,223.719L304.46,222.989L304.58,222.039L306.12,223.589L306.23,224.349L307.15,224.419L307.38,224.759L307.39,225.129L307.91,224.929L310.21,225.639L309.63,227.179L310.65,227.619L309.63,229.029L309.91,230.199L309.32,231.089L309.14,232.459L310.61,233.199L311.84,233.129L312.18,233.809L311.36,234.459L310.96,235.659L311.29,236.419L310.1,237.969L309.92,238.929L310.97,239.709L310.93,240.289L312.04,241.259L313.05,240.969L313.76,241.399L314.87,241.219L315.25,241.459L315.16,241.739L315.67,242.529Z" style="fill-rule:nonzero;"/>
    <path id="JP-28" d="M213.22,277.549L212.13,278.449L210.92,278.229L210.38,276.859L209.3,275.899L209.12,275.429L209.82,274.119L209.14,273.269L209.49,272.949L209.64,272.039L209.44,271.449L210.36,270.909L210.42,269.979L211.01,269.729L211.25,268.629L211.49,268.369L212.16,268.439L212.24,267.659L211.61,266.999L212.05,266.199L212.63,266.459L214.27,265.309L214.01,264.149L214.16,263.719L213.43,262.759L213.52,261.679L212.79,261.339L212.3,259.459L212.42,258.439L212.04,257.669L211.35,257.149L213.48,256.489L214.7,255.749L215.9,256.059L216.32,256.529L217.14,255.859L218.52,256.059L219.8,255.769L220.25,256.099L221.23,256.039L221.25,258.059L222.11,258.859L222.32,259.469L223.04,259.649L224.37,258.989L224.69,259.529L224.69,262.159L223.78,262.679L222.64,262.129L222.27,263.129L222.29,264.399L223.78,265.009L225.1,266.139L225.86,265.679L226.88,265.699L226.9,266.479L227.76,267.299L227.51,267.849L228.06,268.089L228.49,267.729L229.3,267.769L229.52,267.829L229.56,268.559L230.41,268.379L231.38,268.869L231.67,270.129L231.29,270.339L231.12,270.879L230.69,270.829L230.4,271.139L230.8,271.379L230.88,272.349L230.64,272.709L232.04,273.519L233,273.659L232.09,274.169L232.52,274.419L232.05,276.459L232.79,277.699L232.94,279.129L232.4,280.339L231.96,280.009L232.1,279.539L231.85,279.019L230.93,279.339L230.51,278.739L229.54,278.609L227.56,279.549L227.46,280.229L224.88,280.869L220.61,279.149L218.94,277.499L213.22,277.549ZM222.62,288.629L222.84,289.399L220.78,290.239L219.8,291.059L218.46,291.249L218.45,290.799L217.86,290.489L217.92,289.989L217.49,289.829L216.95,288.819L217.62,287.859L218,288.099L218.47,287.859L219.8,285.039L220.2,284.579L220.61,284.589L221.56,283.089L222.51,282.659L223.28,281.539L223.83,281.249L224.27,282.079L223.67,282.799L223.52,283.569L221.74,285.899L221.73,287.439L222.62,288.629Z" style="fill-rule:nonzero;"/>
    <path id="JP-01" d="M330.01,71.569L332.72,69.439L332.76,68.849L330.8,65.679L329.42,64.689L328.72,63.529L329.4,60.989L329.13,60.509L330.77,60.619L331.37,60.199L331.58,59.659L332.11,59.449L334.86,62.109L336.79,62.979L337.92,64.259L340.4,63.789L340.57,63.369L341.59,63.049L342.31,63.069L342.17,64.239L345.21,65.629L347.41,64.409L349.38,62.259L350.37,60.659L350.47,58.309L349.09,55.549L349.63,53.609L348.97,52.169L348.52,49.899L349.54,47.799L351.01,46.909L351.77,46.859L353.8,45.539L354.73,43.649L355.14,41.699L354.79,33.839L355.29,33.519L356.93,30.079L357.14,27.219L357.52,26.429L357.65,24.829L357.35,21.559L356.58,17.719L353.54,10.399L353.23,9.239L353.3,8.249L354.16,6.979L354.95,5.029L354.54,3.629L354.69,2.349L355.44,3.119L355.57,3.639L355.96,3.799L357.72,3.519L359.07,2.579L359.62,0.589L360.49,0.279L360.96,0.609L361.52,1.899L362.11,2.239L362.74,3.709L365.06,5.409L367.27,8.529L372.22,14.089L376.13,21.319L378.71,23.869L381.15,26.969L386.73,31.369L388.3,32.259L388.63,33.209L389.89,34.169L393.59,36.109L396.83,37.389L402.71,39.079L405.5,39.609L405.94,39.299L406.23,40.069L406.17,41.349L407.04,42.899L407.62,43.379L410.83,44.389L414.24,44.599L416.81,44.279L419.09,42.289L420.63,40.369L422.81,38.329L424.64,37.069L425.3,35.619L426.4,34.459L427.18,33.079L427.64,33.109L428.09,35.339L426.88,37.829L425.97,38.749L425.37,41.149L423.64,43.279L422.7,45.399L422.8,46.229L422.03,48.279L422.25,49.339L423.6,51.919L425.09,53.889L426.61,59.119L428.1,61.079L426.94,60.549L426.75,60.019L425.61,59.799L425.37,60.169L425.58,61.429L426.44,60.759L426.91,61.159L426.62,61.709L426.99,62.099L427.39,61.819L429.94,62.439L432.03,60.739L432.35,60.139L433.46,59.429L433.7,58.929L436.98,59.129L436.79,59.629L435.62,60.539L433.89,60.849L432.02,61.879L431.22,64.809L430.45,64.449L429.21,64.399L426.5,64.909L424.99,65.809L423.73,65.599L423.11,66.199L422.97,67.349L421.37,69.499L420.35,69.989L418.45,69.889L417.55,69.099L417.58,68.569L417.91,68.259L417.36,67.889L416.63,67.989L415.44,69.719L415.42,70.129L416.57,71.259L414.56,71.139L413.41,70.789L409.83,70.769L409.14,70.619L407.56,69.349L404.5,69.889L402.07,71.069L398.67,73.599L393.4,78.869L389.32,84.669L387.79,87.979L387.51,89.649L388.06,91.089L387.24,94.969L386.33,96.499L386.33,98.109L382.63,94.389L377.78,92.369L369.69,87.919L367.31,86.249L365.47,84.199L362.26,83.259L360.05,81.209L358.23,80.009L356.4,79.479L354.02,79.439L350.85,80.479L348.77,81.769L346.09,84.049L344.5,84.939L342.38,87.389L342.04,88.139L340.97,87.739L340.64,87.189L341.02,86.899L341.61,87.539L341.73,86.729L340.38,86.319L339.51,83.949L338.72,83.549L337.65,82.429L337.53,81.849L336.26,80.619L335.02,80.529L333.77,81.059L332.8,80.469L331.59,80.499L329.91,82.309L328.47,85.059L327.76,87.609L328.04,89.549L330.36,90.749L333.1,93.099L333.85,93.239L335.22,92.709L337.26,93.019L338.49,95.229L340.12,96.449L341.2,98.329L344.35,99.689L344.9,100.579L345.69,101.169L345.08,101.779L344.13,101.789L343.03,103.089L341.37,103.749L340.51,102.959L337.73,102.049L336.8,102.209L336.52,102.829L336.11,102.929L335.93,102.319L336.61,101.869L336.41,101.199L335.82,100.829L334.96,100.909L334.55,101.239L334.12,102.919L332.68,103.979L331.39,104.079L331.04,104.409L330.73,108.349L330.33,108.829L329.39,108.859L327.43,109.729L326.53,111.619L326.14,111.939L325.12,111.139L323.98,111.359L323.08,110.649L322,107.929L321.91,107.069L322.32,105.299L323.67,102.269L323.67,101.219L324.44,101.299L324.73,100.709L325.04,98.009L324.64,96.029L322.74,93.089L322.07,92.729L320.77,92.609L320.26,91.279L319.41,90.399L318.27,89.989L317.88,89.259L317.69,87.869L318,86.749L318.94,85.719L319.27,84.769L319.3,82.119L318.81,79.889L319.73,78.439L320.85,77.819L323.13,77.759L323.74,76.849L325.13,76.119L325.98,74.199L326.8,74.769L327.36,75.739L328.25,75.509L328.34,74.119L329.16,73.279L330.01,71.569ZM344.73,10.139L344.64,8.909L345.92,7.659L347.99,8.869L348.5,10.679L346.69,12.169L345.32,11.099L344.73,10.139ZM312.85,91.309L312.56,93.529L312.17,94.159L311.52,94.389L311.5,94.749L310.89,94.209L310.95,92.499L310.53,91.389L311.27,90.299L313.18,89.919L313.64,89.399L313.67,90.039L312.85,91.309ZM343.2,4.529L342.94,7.119L342.55,7.249L341.67,4.279L341.89,2.969L341.28,2.629L341.37,1.899L342.02,2.749L342.68,2.599L342.66,2.009L343,2.279L343.35,3.059L343.2,4.529Z" style="fill-rule:nonzero;"/>
    <path id="JP-34" d="M177.18,290.939L176.4,290.239L174.95,291.989L175.26,292.889L176.02,292.689L176.34,292.999L176.19,293.209L175.49,293.739L175.21,293.459L173.67,293.719L173.49,293.129L174.63,292.499L174.38,292.039L174.52,291.409L175.05,290.969L175.13,289.999L174.42,288.269L174.57,287.299L173.26,286.649L170.98,287.689L170.96,288.059L169.23,289.669L169.02,290.179L169.29,290.329L168.96,290.519L167.68,290.209L167.18,288.749L167.26,288.119L166.34,287.339L166.1,285.979L166.27,285.169L165.97,284.489L165.48,283.859L165.78,283.219L166.38,283.039L167.01,282.359L167.22,280.579L167.92,279.549L167.37,279.209L167.67,278.729L169.12,277.869L169.43,276.729L170.22,276.839L170.62,277.319L170.83,276.879L172.07,276.749L172.59,277.169L173.1,276.739L173.03,276.489L173.44,276.349L173.69,276.759L175.32,276.889L176.79,275.829L178.55,275.689L178.54,274.819L177.85,274.609L177.47,274.139L178.32,273.139L179.51,272.889L181.91,269.559L182.31,269.489L183.46,270.189L184.25,269.569L185.23,270.359L186.65,269.939L187.23,270.159L187.23,270.419L189.33,270.099L189.75,270.599L190.76,271.819L190.3,273.029L190.29,274.629L191.89,276.629L191.6,277.749L192.01,279.649L192,281.029L193.21,282.679L193.33,284.419L192.88,285.659L192,285.749L191.96,286.649L191.63,286.959L189.23,286.449L189.19,286.239L189.76,286.049L189.72,285.449L189.16,285.239L189.23,285.669L188.57,285.969L186.92,286.639L186.18,286.549L185.95,287.529L184.69,287.919L183.41,287.709L182.26,287.969L181.91,288.539L181.36,288.799L181.11,288.239L180.4,288.319L180.14,289.179L179.69,289.029L179.65,290.009L178.49,290.089L177.18,290.939Z" style="fill-rule:nonzero;"/>
    <path id="JP-08" d="M333.52,240.309L333.42,242.429L334.31,245.699L336.99,251.199L338.62,253.689L339.44,254.159L339.48,254.609L336.98,253.069L335.87,251.539L334.64,251.279L333.51,250.309L332.6,250.349L331.52,249.829L329.51,250.349L328.65,251.169L327.85,250.939L327.26,251.339L326.4,251.229L325.38,251.639L324.8,250.919L322.34,250.059L321.3,249.359L321.1,248.649L320.38,248.409L318.75,246.399L318.42,245.559L318,245.529L317.61,245.879L317.22,245.779L316.35,243.819L316.52,242.929L317.25,242.869L318.9,241.999L319.45,240.309L320.58,240.589L320.7,239.709L321.7,239.239L321.83,238.789L323.39,238.709L323.65,238.579L323.7,238.059L324.37,238.299L324.78,237.839L325.22,237.819L325.5,238.209L326.17,237.999L326.38,236.829L327.3,234.979L327.28,233.169L326.71,231.219L326.99,230.839L327.94,230.629L328.04,230.319L327.41,229.319L327.63,228.019L327.35,227.029L327.44,225.039L327.99,225.069L328.75,226.089L329.57,226.339L329.9,227.499L331.04,227.919L331.47,228.489L332.93,227.089L334.05,226.599L333.59,225.299L333.93,224.839L334.5,225.869L337.93,226.909L337.97,226.929L338,226.939L338.18,227.579L337.55,227.749L337.06,228.699L335.88,232.699L335.18,233.869L334.4,236.139L334.56,239.019L333.52,240.309Z" style="fill-rule:nonzero;"/>
    <path id="JP-17" d="M257.73,221.149L257.67,219.859L257.35,219.719L256.99,220.059L256.69,219.779L257.3,217.449L257.7,217.099L257.7,215.429L258.05,215.049L259.49,213.879L260.62,213.369L261.75,213.649L264.65,212.169L265.07,211.589L266.05,211.109L267.32,210.939L268.64,210.229L269.67,210.359L270.14,211.019L269.9,211.489L270.31,212.299L269.7,212.589L268.69,212.549L268.16,212.909L267.88,214.079L268.48,215.129L267.82,216.109L266.03,216.059L265.14,216.559L264.57,218.049L263.41,218.909L262.85,218.379L262.36,218.299L262.53,217.689L262.18,217.689L260.72,219.859L261.26,220.089L261.09,220.709L260.58,220.829L260.7,221.259L260.44,221.649L261,221.739L261.56,221.169L262.69,222.279L263.44,221.629L263.64,220.949L264.2,220.949L264.24,224.439L263,224.339L262.28,224.599L260.88,225.969L260.28,229.459L259.73,230.109L259.57,231.089L259.8,231.549L259.04,232.779L259.23,233.909L259.69,234.489L258.94,237.449L259.39,239.329L259.07,239.749L259.21,240.629L259.46,241.209L260.22,241.639L260.26,242.029L259.32,243.709L258.72,243.939L258.94,244.669L258.44,245.759L256.55,246.239L256.31,245.619L254.45,244.159L252.7,244.579L252.23,244.529L251.58,243.769L250.68,243.899L250.27,243.519L250.02,242.269L248.34,240.679L249.44,239.279L250.36,238.959L251.77,237.599L256.24,231.569L257.33,229.599L258.66,225.799L258.7,223.499L257.75,222.019L257.73,221.149Z" style="fill-rule:nonzero;"/>
    <path id="JP-03" d="M359.86,166.199L360.28,166.359L360.33,166.809L359.5,166.769L360.03,167.299L360.53,167.289L360.86,167.969L359.83,168.399L359.1,168.369L359.11,168.729L359.6,168.999L360.15,168.879L360.16,169.119L359.5,169.649L358.76,169.619L358.5,169.889L360.17,170.929L359.31,171.229L358.05,170.699L358.26,171.669L359.28,171.929L358.06,172.109L358.8,172.679L358.53,172.959L357.44,172.879L356.97,173.129L356.55,172.659L356.59,172.089L356.24,171.919L356.3,172.529L356,172.969L356.69,173.829L356.26,173.889L356.37,174.799L355.9,175.139L355.18,174.179L355.43,173.649L355.23,173.459L354.31,173.549L354.47,174.299L353.3,173.809L351.86,173.679L351.62,174.199L351.73,175.979L351.05,176.679L351.15,177.189L350.65,179.129L348.2,178.129L347.3,178.999L347.13,179.699L346.61,179.879L344.84,178.869L344.37,177.779L344.96,177.229L344.71,176.729L343.99,176.529L341.78,176.779L341.23,175.969L339.79,175.489L338.57,174.579L337.62,174.719L337.54,173.569L338.33,172.199L338.19,171.799L337.22,171.419L337.5,170.449L337.23,170.229L337.7,169.399L338.3,169.099L337.45,168.659L337.78,167.599L336.66,166.829L336.13,166.079L336.28,165.159L335.68,163.909L335.29,163.819L335.34,163.169L335.79,163.049L335.74,162.239L336.52,161.389L336.95,160.049L336.74,159.329L337.16,159.219L337.77,158.359L338.04,158.389L338.55,157.199L338.42,156.119L337.76,154.949L338.15,154.809L338.97,153.339L337.85,152.679L337.78,151.619L338.6,151.169L339.09,151.649L339.65,151.469L339.03,148.969L339.08,146.289L339.6,145.829L339.75,144.269L339.35,143.779L340.16,142.669L340.77,142.449L341.17,141.879L341.63,142.559L342.57,142.569L343.57,141.789L344.03,141.769L344.07,141.049L344.81,140.549L346.33,140.169L348.29,138.679L348.97,139.759L350.69,138.659L351.37,138.569L352.61,139.339L353.5,138.649L353.61,137.819L355,137.199L355.47,136.659L356.84,138.699L358.38,142.159L357.4,143.239L358.79,143.839L359.25,144.479L359.13,144.729L358.64,144.739L358.28,145.279L358.39,146.259L358.72,146.739L359.23,146.909L359.72,147.799L360.41,147.919L360.81,148.619L360.49,150.219L361.21,151.429L361.44,154.409L361.02,156.099L361.46,156.169L360.61,158.739L360.86,158.739L362.19,156.939L362.21,158.959L362.81,159.039L363.1,159.739L362.95,160.099L362.33,160.179L361.47,161.349L360.77,161.599L361.2,162.479L362.36,161.349L362.67,161.299L362.87,161.669L362.44,162.999L361.32,163.259L360.43,163.859L359.62,165.049L359.96,165.399L360.75,164.979L361.19,165.519L359.49,165.809L359.86,166.199Z" style="fill-rule:nonzero;"/>
    <path id="JP-39" d="M186.51,317.659L186.27,318.689L185.26,318.339L184.66,318.779L184.22,320.369L184.56,322.029L183.42,322.509L183.4,323.609L184.43,324.239L184.76,325.719L184.45,325.769L182.77,324.269L182,324.159L181.65,324.159L180.44,325.199L179.85,324.839L179.57,325.039L178.66,323.979L177.07,324.859L176.98,324.019L177.66,323.009L177.61,322.649L178.77,321.389L178.53,321.009L177.7,321.079L177.75,320.699L178.16,320.599L178.17,319.269L177.66,318.019L177.86,317.099L177.1,316.239L176.83,315.359L177.17,314.989L178.22,316.169L178.41,316.099L179.26,314.719L179.86,314.549L180.35,312.889L181.56,312.469L182.45,311.799L182.41,311.229L181.7,310.719L180.62,308.539L181.35,308.129L183.52,308.389L184.72,308.049L185.66,306.629L185.34,305.829L185.96,303.989L186.79,303.609L186.85,303.059L187.6,302.159L188.25,300.679L188.79,301.009L189.31,300.819L189.9,299.809L194.24,299.849L195.21,298.649L195.92,298.949L196.39,298.619L197.45,298.619L197.82,299.159L199.16,299.679L200.97,299.509L201.62,300.409L202.41,300.729L203.02,300.529L203.44,299.719L203.83,299.589L204.08,300.049L204.78,299.879L205.29,301.139L205.39,303.139L207.36,303.189L207.59,303.989L207.12,304.529L207.22,304.999L208,306.189L210.11,306.409L208.23,309.989L207.58,313.559L206.84,312.349L206.23,312.349L206.11,311.619L205.13,310.619L204.7,309.589L203.29,308.909L202.78,307.829L199.55,307.229L199.1,306.679L195.95,307.179L195.7,307.649L193.37,308.819L193.39,309.459L191.2,309.869L190.65,310.939L190.4,310.359L189.48,310.659L189.56,311.279L189.29,311.559L189.5,311.999L189.16,312.799L189.5,312.709L189.57,313.239L189.24,313.429L189.43,313.989L188.53,314.929L188.78,315.659L188.54,315.809L188.47,315.409L188.03,315.439L186.51,317.659Z" style="fill-rule:nonzero;"/>
    <path id="JP-37" d="M199.68,288.819L201.82,287.599L202,286.639L204.08,287.339L205.69,287.409L206.76,286.209L207.29,286.589L207.1,287.549L207.28,287.919L207.64,287.979L207.77,287.579L208.22,287.489L209.33,287.719L209.32,288.129L208.93,288.439L209.12,288.919L210.25,289.179L211.07,289.809L211.46,289.749L212.83,290.799L212.67,291.759L212.25,291.979L211.16,291.399L210.88,291.699L209.25,291.439L207.55,291.619L206.81,292.199L206.87,292.619L206.55,292.959L205.31,293.099L204.14,294.009L203.67,294.009L202.81,293.039L201.43,293.289L200.67,293.579L200.39,294.079L199.81,293.889L198.81,294.729L198.67,295.239L198.05,295.459L196.17,294.719L196.86,294.219L197.19,291.139L195.68,289.929L195.75,289.599L196.06,289.509L197.65,290.309L198.2,290.139L199.68,288.819Z" style="fill-rule:nonzero;"/>
    <path id="JP-43" d="M139.63,340.219L138.38,339.569L138.12,339.079L137.55,338.949L137.15,338.239L136.61,338.999L135.7,339.409L134.86,339.399L134.26,339.949L133.22,339.789L132.9,339.169L132.36,338.909L132.54,337.829L133.58,336.699L134.83,334.069L136.49,332.399L136.37,331.439L135.99,331.409L135.92,330.959L136.59,330.989L136.72,330.769L135.82,330.219L138.26,327.799L138.03,327.599L136.92,328.059L134.3,328.159L134.31,327.779L137.03,325.949L137.01,324.429L137.24,324.079L136.39,322.919L135.62,322.739L135.49,321.989L134.03,321.309L133.71,319.559L133.14,319.079L135.28,319.159L135.1,318.089L136.72,316.599L138.22,316.769L138.75,315.329L138.91,315.729L139.72,315.689L140.39,316.299L141.92,316.819L141.91,317.109L142.78,317.279L143.38,318.069L144.01,318.119L144.41,318.749L144.79,318.759L145.28,318.129L145.46,317.279L144.63,316.069L144.76,315.329L145.78,314.769L147.19,315.029L148.23,316.119L148.42,317.289L149.28,318.069L149.87,319.689L150.08,321.959L151.48,323.229L150.22,323.389L149.66,324.389L149.63,325.289L148.66,325.929L148.46,326.859L147.87,326.859L147.51,327.399L147.26,328.809L146.8,329.149L146.09,328.939L145.8,329.659L145.4,329.829L145.15,331.209L145.4,332.339L145.82,333.019L146.26,333.109L146.45,334.259L147.21,334.939L146.58,335.969L146.02,335.999L145.82,336.589L146.97,337.929L147.14,338.839L146.26,338.949L145.15,338.589L144.45,339.779L144.05,339.909L143.2,339.559L142.2,340.269L139.63,340.219ZM133.61,330.439L134.08,330.369L133.85,331.649L133.31,332.409L133.59,332.499L133.03,333.349L132.2,333.729L131.01,333.209L130.11,333.289L130.05,332.909L129.54,332.739L129.15,333.139L129.65,333.539L129.7,333.979L129.27,334.969L127.41,336.319L127.18,337.179L126.12,337.889L126.17,338.849L125.7,339.019L125.04,337.919L125.29,337.049L124.56,336.839L125.21,335.419L124.77,334.839L124.75,334.119L125.94,331.709L126.12,330.579L127.51,329.929L128.92,329.779L129.16,330.059L129.01,330.979L129.27,332.009L130.89,331.199L131.49,330.479L132.36,330.209L132.93,330.579L133.61,330.439ZM128.44,337.559L128.36,336.849L128.94,336.259L128.72,337.219L129.38,338.919L128.92,339.199L128.45,340.439L127.43,339.619L127.51,338.869L127.17,338.509L127.31,337.639L128.44,337.559ZM134.11,329.609L133.58,329.879L133.22,329.719L133,328.849L133.96,327.959L134.29,328.839L133.97,329.259L134.11,329.609Z" style="fill-rule:nonzero;"/>
    <path id="JP-14" d="M301.03,262.339L301.44,261.209L303.23,260.379L303.69,259.729L304.4,259.629L304.89,259.109L305.23,258.409L305.25,255.799L305.85,255.929L306.31,256.479L306.92,256.449L307.51,257.439L308.37,257.279L310.54,257.989L311.89,259.879L312.19,259.849L312.38,257.829L311.59,257.209L311.81,256.979L312.3,257.449L313.06,256.539L315.74,257.809L316.07,258.479L316.55,258.709L316.56,259.089L317.2,258.899L317.26,258.899L317.68,259.629L316.19,260.409L315.45,260.349L315.04,260.759L315.42,261.209L315.82,261.089L316.22,261.379L315.81,262.259L315.46,262.009L314.99,262.089L314.89,262.479L315.38,262.739L315.65,264.059L315.31,264.759L316.27,265.539L317.34,265.769L316.91,266.829L316.2,266.919L315.55,267.469L315.67,268.059L316.01,268.149L315.97,268.579L314.63,268.549L314.78,267.369L314.45,266.189L313.82,265.509L313.88,264.879L311.34,264.259L308.89,264.599L306.77,265.259L305.61,266.189L305.44,268.279L304.8,268.629L303.28,268.419L303.15,267.739L302.45,267.199L302.21,265.689L302.78,265.059L303.05,264.099L302.71,262.569L302.56,262.329L301.03,262.339Z" style="fill-rule:nonzero;"/>
    <path id="JP-46" d="M130.43,355.819L131.56,353.929L131.83,351.589L131.63,350.519L128.54,347.329L129.67,344.629L129.49,343.539L128.76,342.139L129.33,341.059L128.61,340.479L128.82,339.939L129.66,339.509L130.18,339.519L130.86,339.979L131.94,339.879L132.38,338.919L132.92,339.179L133.24,339.799L134.28,339.959L134.88,339.409L135.72,339.419L136.63,339.009L137.17,338.249L137.57,338.959L138.14,339.089L138.4,339.579L139.65,340.229L139.17,341.229L139.82,341.459L140.64,342.249L141.06,343.669L142.14,344.019L142.88,344.869L142.76,346.129L142.56,346.199L142.73,347.079L143.38,347.179L143.68,347.539L144.76,347.669L144.58,348.279L145.37,348.469L145.53,350.039L146.08,351.009L146.58,350.429L147.29,351.069L148.25,350.959L148.72,351.249L149.02,352.169L148.77,352.789L148.96,353.629L148.34,354.289L148.22,355.009L147.05,354.589L146.06,355.369L145.36,356.459L145.28,357.259L147.05,357.869L147.07,358.299L146.42,359.009L146.6,359.189L147.39,358.909L147.51,359.159L146.24,360.289L145.23,360.319L145.02,361.159L144.23,362.329L142.47,363.309L141.03,363.559L138.29,365.609L138.65,364.249L138.14,363.849L139.94,362.459L140.38,361.339L140.13,360.619L140.83,359.729L141.1,357.799L140.16,355.739L139.7,355.139L139.03,354.859L139.14,352.919L137.79,352.949L136.92,352.129L137.6,351.219L138.65,351.019L139.39,351.639L139.28,352.469L140.34,352.559L141.47,350.499L140.98,349.399L138.31,348.619L137.47,349.289L137.25,350.479L136.32,351.819L136.47,352.359L135.77,353.829L135.53,353.799L135.37,354.779L135.63,356.099L136.43,358.159L137.5,359.139L138.39,359.369L137.87,361.129L136.84,361.869L136.22,361.379L135.46,361.669L135.22,361.379L135.28,360.559L134.32,359.709L132.2,359.729L131.34,359.359L129.48,359.769L129.3,358.289L128.66,358.059L129.38,357.509L127.84,356.029L128.38,355.369L128.64,355.849L129.67,356.359L130.43,355.819ZM135.07,377.779L136.49,378.409L136.43,378.739L137.8,379.109L138.47,379.739L138.09,381.499L136.78,382.819L135.54,383.119L133.85,382.839L133.59,382.049L133.37,382.229L133.38,381.539L132.93,380.959L132.66,379.819L132.7,379.349L133.64,379.269L134.38,378.359L134.39,377.889L134.94,377.979L135.05,377.609L135.07,377.779ZM143.93,375.109L143.75,373.049L144.57,371.749L144.87,371.759L145.02,370.419L146.08,369.149L146.59,370.289L146.35,370.849L146.51,372.429L146,373.149L146.08,374.299L145.6,374.929L145.64,375.399L144.95,375.819L144.21,377.339L144.35,377.619L144.13,377.869L144.56,378.389L144.33,378.859L144.6,379.209L144.27,379.329L144.26,379.789L143.45,379.779L142.45,380.459L142.15,379.879L142.32,378.999L141.98,377.649L142.46,377.659L143.93,375.109ZM119.8,350.759L119.03,351.229L118.62,350.939L118.49,350.379L118.86,350.169L119.25,349.049L120.57,348.559L121,347.319L121.36,347.489L121.31,347.979L120.68,349.129L120.08,349.309L120.19,349.719L119.81,350.129L120.07,350.449L119.8,350.759ZM121.96,346.259L121.64,345.699L121.99,345.229L122.53,345.309L122.91,345.799L123.76,345.609L123.88,345.989L123.85,346.589L122.94,346.889L122.43,346.619L122.51,346.289L122.11,345.959L121.96,346.259ZM129.78,377.619L130.47,378.109L130.46,378.369L130.06,378.299L129.39,378.689L129.01,378.239L129.09,377.759L128.59,377.889L128.06,377.139L129.78,377.619Z" style="fill-rule:nonzero;"/>
    <path id="JP-26" d="M231.15,270.899L231.32,270.369L231.69,270.159L231.4,268.899L230.43,268.409L229.57,268.589L229.53,267.849L229.31,267.789L228.5,267.749L228.08,268.109L227.52,267.869L227.77,267.319L226.91,266.489L226.89,265.719L225.87,265.689L225.1,266.159L223.78,265.019L222.29,264.409L222.27,263.149L222.64,262.149L223.78,262.699L224.69,262.179L224.7,259.549L224.37,259.009L223.04,259.669L222.32,259.489L222.11,258.879L221.25,258.079L221.23,256.059L221.49,256.359L222.46,256.339L223.05,256.039L223.5,255.259L224.31,255.319L226.23,253.969L228.12,253.369L229.2,254.049L229.86,255.249L228.79,256.259L228.6,256.999L227.51,258.319L227.57,258.919L227.87,258.909L228.46,257.939L229.07,258.279L229.2,258.449L228.56,258.999L229.91,259.609L230.16,259.279L230.3,260.659L230.78,260.179L231.62,260.389L231.67,259.879L230.41,259.089L231.26,258.409L232.19,258.299L232.34,257.719L232.69,257.709L232.7,258.279L233.11,258.529L232.7,259.419L233.22,259.839L232.93,260.849L234.24,262.059L234.37,262.929L236.1,263.119L237.6,263.709L238.97,263.449L240.15,265.289L240.57,265.279L240.19,266.719L240.62,268.829L240.31,270.569L239.97,270.819L240.26,271.989L241.15,273.499L240.91,274.569L241.62,275.039L242.35,274.659L242.48,275.539L242.79,275.489L243.09,275.859L243.49,275.709L244.1,276.309L243.84,276.569L243.99,276.979L244.44,278.179L244.1,278.929L243.52,278.849L243.03,278.179L242.04,278.169L242.12,277.809L241.38,278.939L240.65,279.019L238.73,278.499L238.21,277.279L238.49,276.659L237.47,275.509L237.16,274.449L235.92,273.299L235.92,272.679L235.17,272.659L234.91,273.339L235.29,273.759L234.5,274.019L233.81,273.289L233.56,273.399L233.49,272.239L231.33,271.639L231.15,270.899Z" style="fill-rule:nonzero;"/>
    <path id="JP-24" d="M257.24,288.869L257.05,288.999L257.71,287.799L257.14,287.469L256.48,288.879L255.38,289.619L255.01,289.669L254.74,288.879L254.46,288.969L254.23,289.809L254.14,289.119L253.44,289.109L253.72,290.049L253.5,290.289L250.55,291.009L250.14,290.899L249.5,291.449L248.95,292.459L249.3,293.069L249.72,293.009L249.37,293.699L248.76,293.799L248.39,293.259L247.98,293.369L248.16,293.689L247.46,293.929L247.64,294.249L248.32,294.149L248.33,294.829L249.05,295.199L248.88,296.399L248.22,296.489L247.44,297.619L246.5,297.799L246.09,298.459L245.48,298.429L244.42,300.309L243.7,302.309L242.41,302.039L240.71,300.099L240.78,298.179L241.88,296.459L243.09,296.069L243.92,294.949L245.54,295.199L245.4,293.869L245.64,293.599L245.76,291.849L245.39,291.169L246.12,289.809L245.43,288.659L246.1,288.299L244.94,286.449L245.44,285.499L247.62,285.179L248.01,284.239L247.72,283.279L247.07,283.539L246.61,282.529L245.79,282.799L244.75,282.289L244.49,281.879L244.93,280.879L244.88,280.279L245.26,279.759L244.46,278.189L244.01,276.979L245.35,276.429L245.28,275.919L246.05,275.289L245.97,275.039L245.35,274.989L245.28,274.739L245.75,274.349L246.07,274.729L247.09,274.709L248.43,275.369L250.76,274.239L250.97,273.319L251.76,272.219L251.8,270.839L252.53,268.339L251.82,267.609L251.74,266.759L253.95,265.809L255.65,268.299L256.73,268.419L257.05,269.629L258.02,271.199L257.26,271.399L256.34,272.089L255.98,273.109L256.24,274.229L254.31,277.179L253.75,278.809L253.81,279.469L254.48,279.759L254.1,281.089L256.2,281.699L256.48,282.379L257.76,282.849L258.84,283.659L260.02,283.689L260.24,284.339L260.8,284.469L260.59,284.749L260.75,285.029L261.46,284.899L261.74,285.189L261.82,285.919L260.69,286.589L260.8,286.919L261.43,287.059L260.8,287.769L261.09,288.239L260.63,289.509L259.66,289.779L258.29,289.309L259.37,289.149L259.91,289.419L259.98,288.769L259.5,288.649L259.23,288.849L257.77,288.509L257.24,288.869Z" style="fill-rule:nonzero;"/>
    <path id="JP-04" d="M343.29,189.889L342.88,190.599L343.2,190.849L343.54,190.699L343.72,191.349L342.46,192.099L340.75,195.719L340.35,199.419L340.67,201.369L339.98,201.189L339.26,201.459L339.29,203.629L339.16,203.849L337.58,203.789L338.05,204.179L337.9,204.339L336.69,204.069L336.06,203.569L335.78,202.819L335.96,201.679L335.4,201.219L334.58,200.939L331.93,201.209L331.56,200.119L330.42,199.429L329.29,199.999L327.9,199.339L327.84,197.359L329.56,197.349L330.55,196.799L330.74,195.779L331.85,194.199L331.62,192.969L331.78,191.949L332.83,190.629L332.67,190.029L333.76,188.889L334.37,187.289L334.17,186.589L333.57,186.199L333.3,185.289L333.68,184.639L333.65,184.099L333.04,182.729L333.14,182.499L333.8,182.849L334.2,182.749L334.63,181.599L334.41,180.629L335.09,179.529L334.26,179.079L334.07,178.019L333.01,176.999L333.24,176.649L333.51,176.829L335.27,176.469L336.91,174.899L337.62,174.729L338.57,174.589L339.79,175.499L341.23,175.979L341.78,176.789L343.99,176.539L344.71,176.739L344.96,177.239L344.37,177.789L344.84,178.879L346.61,179.889L347.13,179.709L347.3,179.009L348.2,178.139L350.65,179.139L351.15,177.199L351.05,176.689L351.73,175.989L351.62,174.209L351.86,173.689L353.3,173.819L354.47,174.309L355.32,177.159L354.94,177.039L354.43,176.219L353.74,176.419L353.65,178.089L352.29,178.929L352.14,179.489L353.16,180.169L353.11,181.379L352.4,180.739L351.39,181.679L350.79,181.859L350.76,182.579L352.48,182.789L352.36,183.469L351.64,184.109L351.17,184.159L351.2,184.649L351.65,184.849L351.81,185.389L352.29,185.219L352.9,185.579L352.61,186.529L352.14,185.879L351.78,185.989L351.78,187.639L350.85,187.619L351.21,187.939L351.33,188.879L352.66,188.719L352.69,189.009L352.03,189.129L352.72,190.929L352.38,191.909L350.92,190.849L351.18,190.329L350.25,190.059L350.51,189.609L351.08,189.389L350.54,188.749L349.41,189.129L349.24,188.469L348.97,188.359L348,188.299L346.44,188.749L345.19,189.589L345.31,190.509L344.77,190.679L344.7,189.299L343.78,189.179L343.27,189.489L343.29,189.889Z" style="fill-rule:nonzero;"/>
    <path id="JP-45" d="M154.91,341.459L153.91,344.839L153.76,346.289L154.59,347.459L154.03,349.019L154.09,351.039L153.3,351.499L152.4,353.589L152.64,354.389L152.09,354.729L152.28,355.689L151.5,356.419L151.84,357.129L151.33,357.159L150.81,356.699L149.93,356.779L149.25,355.269L148.2,355.009L148.32,354.289L148.94,353.629L148.75,352.789L149,352.169L148.7,351.249L148.23,350.959L147.27,351.069L146.56,350.429L146.06,351.009L145.51,350.039L145.35,348.469L144.56,348.279L144.74,347.669L143.66,347.539L143.36,347.179L142.71,347.079L142.54,346.199L142.74,346.129L142.86,344.869L142.12,344.019L141.04,343.669L140.62,342.249L139.8,341.459L139.15,341.229L139.63,340.229L142.2,340.279L143.2,339.569L144.05,339.919L144.45,339.789L145.15,338.599L146.26,338.959L147.14,338.849L146.97,337.939L145.82,336.599L146.02,336.009L146.58,335.979L147.21,334.949L146.45,334.269L146.26,333.119L145.82,333.029L145.4,332.349L145.15,331.219L145.4,329.839L145.8,329.669L146.09,328.949L146.8,329.159L147.26,328.819L147.51,327.409L147.87,326.869L148.46,326.869L148.66,325.939L149.63,325.299L149.66,324.399L150.22,323.399L151.48,323.239L151.96,323.819L152.34,323.829L154.36,323.129L155.19,323.989L155.01,324.459L155.2,324.749L156.1,325.049L156.62,324.609L158.85,324.629L159.34,324.049L159.49,323.309L160.29,323.159L161.93,323.779L161.67,325.339L162.23,325.349L162,325.869L160.44,326.839L159.85,328.509L158.77,329.039L158.37,329.909L158.6,330.539L159.33,331.069L158.67,331.609L157.77,331.779L157.96,332.329L158.55,332.679L157.63,333.039L156.46,335.819L154.91,341.459Z" style="fill-rule:nonzero;"/>
    <path id="JP-15" d="M287.09,219.259L288.94,218.039L291.5,215.399L293.81,214.099L296.1,210.249L296.94,209.669L297.62,208.489L299,203.879L299.91,202.779L303.98,199.849L306.36,199.219L308.07,198.109L309.82,196.229L311.06,194.229L311.47,192.639L311.6,188.759L313.45,185.009L315.26,185.969L316.74,186.289L316.98,186.579L316.58,188.569L317.38,189.699L319.22,190.179L320.37,191.409L319.58,192.999L318.21,193.859L316.63,193.639L316.11,194.459L316.27,195.769L315.93,196.589L316.28,197.349L315.59,197.859L315,201.029L315.66,202.189L316.32,202.509L316.77,202.379L317.22,203.149L315.64,204.859L314.93,206.159L315.06,206.399L313.53,207.439L313.5,208.169L313.92,209.199L313.83,210.009L314.21,210.829L313.73,211.059L312.47,210.839L312.1,211.079L311.71,210.759L311.24,210.799L310.83,210.959L310.51,212.149L309.83,211.909L309.28,212.199L307.13,212.439L306.56,213.359L307.23,213.919L307.09,215.109L306.89,216.269L305.92,217.669L306.51,218.469L307.19,218.629L307.66,219.559L307.31,220.839L307.73,222.229L307.51,223.009L307.62,224.349L307.38,224.769L307.15,224.429L306.23,224.359L306.12,223.599L304.58,222.049L304.46,223.009L303.64,223.739L302.01,224.019L302.28,225.949L302.18,226.199L301.34,226.099L301.05,227.049L301.3,227.489L299.81,228.109L299.16,228.079L299.27,229.079L298.48,229.749L297.28,229.309L296.92,229.939L296.67,229.779L296.55,229.299L296.17,229.049L296.69,228.199L296.46,227.739L296.6,227.009L295.62,226.559L294.59,225.469L294.55,223.919L294.13,222.979L293.32,222.749L290.76,223.559L290.03,225.119L288.84,225.649L288.58,227.299L288.33,227.339L288.04,226.709L287.19,226.649L286.18,227.309L284.94,227.329L284.01,228.389L283.06,227.699L283.61,226.409L283.24,225.849L281.38,225.459L280.37,225.549L280.45,226.839L279.67,228.149L278.3,229.199L277.71,227.519L277.71,226.749L277.32,226.149L277.29,224.959L276.47,224.709L275.77,223.899L281.19,221.919L283,220.589L283.86,220.289L284.78,219.189L285.89,219.469L287.09,219.259ZM292.09,194.489L291.5,195.749L291.69,196.819L292.39,197.119L294,196.469L294.2,196.719L292.78,200.649L290.03,202.879L288.93,202.939L287.92,203.549L287.18,203.399L286.97,202.929L288.28,202.359L288.62,201.519L288.52,200.669L289.63,199.669L289.86,198.779L289.61,199.189L289.09,198.609L288.48,198.509L287.92,199.559L287.51,199.319L287.52,198.439L287.29,198.289L287.64,197.939L287.67,196.569L288.65,195.319L289.35,193.729L290.13,193.349L290.81,192.359L291.52,192.179L291.98,190.639L293.07,190.379L292.63,193.589L292.09,194.489Z" style="fill-rule:nonzero;"/>
    <path id="JP-20" d="M274.33,265.089L274.32,264.559L275.16,263.909L274.9,262.639L275.77,262.349L275.06,261.369L275.71,260.669L275.71,259.759L275.14,259.219L274.07,259.539L273.76,258.989L273.83,257.889L273.44,257.439L273.87,256.159L273.09,255.459L272.29,253.669L271.06,253.299L271.01,252.789L269.97,252.779L269.68,252.389L269.79,251.849L270.38,251.599L270.73,250.539L271.88,250.189L272.21,250.519L272.63,250.449L273.15,249.389L273.59,249.289L273.96,248.369L274.96,247.609L275.35,246.039L274.63,245.789L274.17,245.289L274.18,244.479L274.93,243.769L274.98,243.249L274.6,242.699L275.99,240.889L276.08,240.109L275.99,239.579L274.96,238.919L274.83,238.409L275.73,237.549L276.15,236.739L276.13,235.989L276.52,235.459L277.13,235.289L277.01,234.799L276.8,234.839L276.91,234.069L278.09,233.369L278.29,229.189L279.66,228.139L280.44,226.829L280.36,225.539L281.37,225.449L283.23,225.839L283.6,226.399L283.05,227.699L284,228.389L284.93,227.329L286.17,227.299L287.18,226.649L288.03,226.709L288.32,227.329L288.56,227.289L288.82,225.639L290.01,225.109L290.74,223.539L293.31,222.729L294.12,222.959L294.54,223.899L294.58,225.449L295.61,226.539L296.59,226.989L296.45,227.719L296.68,228.169L296.16,229.029L296.54,229.269L296.66,229.749L295.11,230.579L293.32,230.939L293.31,232.029L292.35,232.189L291.39,233.369L291.41,234.359L290.81,236.019L290.87,237.319L292.12,238.059L292.55,238.129L292.76,237.819L293.64,238.069L294.08,237.669L294.78,237.569L295.61,237.819L295.9,238.969L295.83,240.449L294.8,241.129L295.03,242.239L295.45,242.679L295.42,243.489L294.97,243.969L294.51,243.639L294.35,243.809L294.79,244.569L295.44,244.649L295.72,245.319L295.39,245.669L295.77,247.439L296.38,247.629L296.74,248.149L297.1,248.059L297,248.519L297.52,249.569L297.32,250.089L296.92,250.079L296.19,251.019L295.22,251.029L294.68,249.889L292.92,249.859L292.7,250.269L292.22,250.359L291.74,249.829L291.75,249.159L290.32,248.579L288.55,251.289L287.83,250.669L287.63,250.789L286.66,252.759L287.54,253.619L286.54,254.719L287.27,256.489L286.69,258.129L286.33,257.989L285.77,258.639L286.1,258.899L285.69,259.459L286.11,260.769L285.37,261.029L285.37,261.699L285.9,262.369L285.76,263.089L284.11,263.719L282.9,264.729L281.62,265.369L281.41,265.799L280.9,265.809L280.44,266.739L279.37,266.849L278.53,267.109L278.31,266.719L276.76,266.419L275.9,266.979L274.65,267.239L274.65,266.729L274.02,265.919L274.33,265.089Z" style="fill-rule:nonzero;"/>
    <path id="JP-29" d="M244.44,278.179L245.24,279.749L244.86,280.269L244.91,280.859L244.48,281.869L244.74,282.279L245.77,282.779L246.59,282.509L247.06,283.519L247.71,283.249L248,284.209L247.61,285.159L245.43,285.479L244.93,286.429L246.08,288.279L245.42,288.639L246.11,289.799L245.39,291.159L245.76,291.839L245.63,293.589L245.39,293.859L245.53,295.189L243.91,294.939L243.09,296.049L241.88,296.439L240.78,298.159L238.77,298.499L238.11,298.089L237.45,298.079L236.3,298.759L236.08,298.189L235.71,298.059L236.42,296.229L236.14,295.719L235.56,295.509L235.62,294.989L234.48,294.029L234.6,293.489L236.1,292.039L236.48,291.459L236.47,290.749L237.01,290.479L237.82,290.849L238.21,290.249L238,289.599L237.11,289.099L236.91,287.379L236.51,286.699L237.12,286.329L237.31,285.229L237.23,284.059L236.7,282.809L237.27,281.909L237.06,281.459L236.68,281.389L237.19,279.019L237.7,278.579L237.86,277.219L238.21,277.279L238.73,278.499L240.65,279.019L241.38,278.939L242.12,277.809L242.04,278.169L243.03,278.179L243.52,278.849L244.1,278.929L244.44,278.179Z" style="fill-rule:nonzero;"/>
    <path id="JP-42" d="M130.36,322.239L131.31,322.099L131.8,322.459L132.68,324.169L132.68,325.269L132.07,326.069L132.3,326.379L132.09,326.869L130.48,327.469L129.82,328.319L128.55,328.789L128.58,328.109L127.78,327.619L127.86,326.749L129.27,325.629L129.33,325.019L128.86,324.769L129.05,324.349L128.79,324.059L126.93,324.029L125.85,324.739L124.32,324.649L124.13,325.639L123.19,327.129L122.23,327.699L121.39,328.799L120.08,329.279L120.32,328.739L120.91,328.499L121.92,325.449L120.63,323.919L120.82,323.469L120.26,323.379L120.08,323.789L119.18,322.919L118.58,321.159L117.95,320.339L117.88,319.769L118.34,319.039L118.57,317.459L119.54,317.189L120.1,317.909L119.95,319.079L120.34,319.169L120.59,318.749L121.6,319.369L121.62,320.999L121.24,320.989L121.39,321.709L121.07,322.369L121.66,322.429L122.25,323.189L123.22,322.059L124.85,323.089L125.42,322.839L123.89,321.039L124.28,319.569L123.9,318.629L122.5,317.689L120.94,317.809L120.11,317.419L119.79,315.409L119.34,315.499L119.56,316.309L118.68,316.899L118.49,316.179L119.13,316.099L118.9,315.409L118.08,315.349L117.74,314.669L117.01,314.179L116.46,314.189L116.59,313.299L117.17,312.879L116.91,311.459L117.31,310.319L117.9,310.779L118.8,309.899L119.09,310.169L118.74,310.699L118.93,310.969L119.68,311.119L120.34,310.659L120.68,310.979L121.01,310.529L121.22,311.369L120.63,312.359L121.68,313.739L121.71,314.999L123.09,315.579L124.11,315.479L124.47,316.349L124.37,316.769L123.85,316.869L123.8,317.229L124.95,317.999L126.5,319.649L129.3,320.329L129.25,320.929L128.57,321.269L127.77,322.199L128.62,322.939L130.36,322.239ZM112.04,287.939L112.39,286.799L111.83,287.509L110.51,287.459L110.01,287.159L110.53,287.019L110.81,286.579L110.94,284.589L111.61,283.239L112.02,283.059L112,282.639L111.22,282.529L111.19,282.159L111.56,281.719L111.86,280.289L113.3,280.219L113.69,279.259L114.4,278.909L115.05,279.199L115.36,279.809L114.81,281.269L114.88,282.509L114.12,283.719L112.82,284.949L113.39,285.919L113.13,287.039L113.62,287.099L113.73,287.389L112.85,288.129L112.88,288.529L113.26,288.689L112.59,289.319L111.98,289.189L111.07,292.649L109.7,293.739L109.5,293.289L108.78,293.299L109.54,287.859L110.02,288.159L109.9,288.769L110.75,288.489L110.77,288.099L112.04,287.939ZM102.41,325.289L102.55,326.479L103.49,327.299L103.41,327.629L101.96,327.729L101.74,327.279L101,327.529L100.85,328.109L101.36,328.379L101.47,328.769L101.04,329.209L100.66,329.079L100.31,328.409L98.71,328.799L97.6,328.289L97.87,327.469L98.07,327.769L99.03,327.359L98.59,326.689L98.42,324.789L98.75,324.339L99.22,324.379L99.76,325.059L101.76,323.929L101.75,324.399L102.41,325.289ZM107.59,318.099L107.28,319.649L107.93,319.609L108.8,319.029L109.12,319.169L109.15,319.739L107.44,321.229L107.52,322.509L106.83,322.449L106.7,323.539L106.38,323.379L106.69,321.839L106.23,320.529L105.96,320.829L105.36,320.559L105.77,319.789L106.47,319.809L106.35,318.599L107.54,317.359L107.38,316.399L107.76,315.409L107.92,316.749L107.59,318.099ZM115.86,310.349L116.17,310.449L116.23,310.109L115.68,310.119L115.83,309.739L116.46,309.659L116.62,310.319L116.43,310.579L116.75,310.889L116.28,311.099L116.25,311.519L115.8,311.619L116.02,311.979L114.67,314.259L112.82,315.299L112.41,315.019L112.48,314.479L112.86,314.919L113.3,314.889L113.02,314.009L113.94,313.489L113.49,312.899L114.26,311.639L115.55,310.339L115.86,310.349ZM102.75,322.889L103.58,323.409L103.15,324.769L102.4,324.279L102.32,322.999L102.75,322.889ZM105.69,322.509L105.16,322.249L104.76,321.589L105.47,321.689L105.1,321.149L105.3,320.819L106.2,321.639L106.09,322.869L105.69,322.509ZM108.33,312.319L108.31,312.739L108.63,312.879L108.07,313.159L108.11,313.399L106.97,313.159L106.91,312.889L107.35,312.509L107.93,312.479L107.98,312.159L108.33,312.319ZM104.35,323.909L104.19,323.499L103.84,323.419L103.82,322.999L103,322.469L103.33,322.109L103.9,322.269L104.16,323.009L104.53,322.199L104.71,322.269L104.84,322.699L104.4,323.239L104.6,323.529L104.35,323.909ZM113.55,310.509L114.1,308.849L114.1,310.939L113.38,310.839L113.55,310.509ZM116.88,307.949L116.43,308.239L115.33,308.179L116.5,307.249L117.04,307.599L116.88,307.949ZM106.74,314.849L106.51,314.979L106.12,314.669L106.44,314.129L106.87,314.399L107.46,314.219L107.28,314.899L106.74,314.849Z" style="fill-rule:nonzero;"/>
    <path id="JP-47" d="M82.16,466.989L82.99,466.179L85.1,465.289L85.48,464.539L84.74,463.939L83.74,463.839L83.41,463.009L83.72,462.659L83.34,462.129L83.4,461.529L83.92,461.799L85.03,461.629L85.8,461.929L85.99,462.129L85.65,462.839L85.97,463.319L86.89,463.209L87.83,462.609L88.14,461.709L88.96,461.319L88.94,461.009L90.38,459.639L90.8,458.639L90.71,458.049L90.96,457.929L91.87,458.639L92.26,460.679L90.5,463.299L88.74,463.329L88.79,464.019L88.27,463.919L88.82,464.709L87.67,465.429L86.52,465.049L86.85,465.719L85.14,466.879L84.81,467.549L83.22,467.099L82.47,467.669L82.68,468.249L83.38,468.779L83.31,469.259L84.3,470.319L84.25,470.669L83.24,469.779L82.57,469.919L81.25,472.709L81.45,473.009L82.19,472.909L82.47,473.469L80.83,474.519L80.38,475.149L79.43,475.489L79.04,475.279L78.65,472.769L80.05,471.129L81.01,470.639L81.06,470.379L80.18,468.279L80.21,467.639L80.37,467.489L80.61,467.869L82.16,466.989ZM117.24,424.859L116.14,426.289L115.07,426.689L114.57,426.499L114.29,427.629L114.67,428.379L113.6,429.119L113.42,429.719L113.07,429.419L112.78,429.719L112.99,430.729L111.35,429.799L111.38,429.299L110.93,428.429L109.04,428.129L108.19,427.469L109.99,427.019L110.17,426.829L109.79,426.369L110.76,425.809L111.52,425.769L112.24,424.889L112.77,425.219L113.32,424.509L114.36,424.629L114.66,423.889L114.96,424.199L115.52,424.189L115.75,423.289L116.24,422.769L116.75,422.919L117.79,422.459L117.95,423.409L117.73,423.669L118.1,423.859L118.82,422.859L118.25,421.929L119.14,421.309L119.25,422.219L119.73,422.549L119.66,423.549L118.65,424.279L117.63,424.189L117.24,424.859ZM5.8,512.649L5.58,513.589L5.08,513.749L5.11,514.479L4.71,514.439L4.6,514.899L3.75,514.529L2.16,514.379L1.57,513.959L1.45,514.419L0.7,514.319L0.32,513.779L1.15,512.869L1.67,513.059L1.94,513.509L2.12,512.309L1.93,511.919L2.59,510.969L3.3,511.559L4.53,511.719L5.8,512.649ZM104.96,436.279L104.91,437.149L106.29,438.369L105.32,440.419L104.29,440.609L103.17,439.239L103.68,438.339L103.14,436.769L103.56,435.449L105,435.489L104.96,436.279ZM10.33,510.689L11.39,510.559L11.34,510.209L12.05,509.179L12.49,509.459L12.82,508.719L12.56,508.279L13.07,507.719L13.13,507.229L13.7,507.329L13.56,508.119L12.97,508.639L13.08,508.929L12.57,509.429L12.54,509.849L11.92,510.389L12.08,511.479L11.72,512.879L10.03,513.249L9.79,512.789L9.17,512.499L9.67,512.039L9.78,511.459L8.92,511.049L8.62,511.409L8.31,511.079L8.45,510.569L9.28,510.749L9.27,509.949L10.33,510.689ZM31.67,504.069L31.84,503.809L31.96,504.189L32.3,504.159L31.74,503.169L32.19,502.839L32.33,502.189L31.77,500.819L31.95,500.629L33.33,502.669L33.34,503.189L35.25,503.979L35.65,504.649L32.79,505.059L31.86,504.559L31.67,504.069ZM98.21,447.179L97.62,447.729L96.82,447.959L96.25,447.439L96.11,446.629L96.32,446.259L97.55,446.429L99.44,445.469L99.82,445.509L98.21,447.179ZM109.89,429.569L110.28,429.749L110.58,429.229L111.19,430.319L112.31,430.479L112.52,430.809L112.24,431.389L111.86,431.569L111.31,431.059L111.13,431.709L110.42,430.879L109.76,431.389L109.86,429.989L109.23,429.609L108.96,428.919L109.65,428.629L109.84,428.849L109.54,429.079L109.89,429.569ZM61.57,469.989L60.68,469.489L60.42,468.989L61.87,468.609L62.66,469.529L62.28,470.019L62.42,470.729L61.76,470.429L61.57,469.989ZM125.92,424.909L124.72,426.779L124.14,426.999L123.65,426.619L123.7,425.889L124.31,425.819L125.51,424.679L125.92,424.909ZM29.43,502.749L29.44,502.079L29.75,502.449L29.95,501.719L30.85,502.109L31.09,502.809L29.89,503.079L29.43,502.749ZM84.84,454.249L85.74,453.219L86.24,453.129L85.65,454.229L84.19,455.399L84.84,454.249ZM82.2,461.039L82.44,461.579L81.14,461.619L80.88,461.389L81.09,460.969L82.2,461.039ZM73.17,472.169L73.46,472.409L73.46,472.959L73.2,473.169L73.29,473.669L72.84,474.079L72.78,473.099L73.17,472.169ZM84.6,456.169L84.99,456.619L84.92,457.089L84.64,457.169L84.08,456.579L84.6,456.169ZM7.02,514.849L7.58,515.099L7.27,515.629L6.8,515.219L7.02,514.849ZM72.26,471.659L72.68,471.869L72.2,472.329L71.71,472.179L72.26,471.659Z" style="fill-rule:nonzero;"/>
    <path id="JP-27" d="M232.14,283.279L232.51,282.479L231.87,282.339L231.84,281.529L232.14,281.019L232.88,280.589L232.42,280.359L232.96,279.149L232.81,277.719L232.07,276.479L232.54,274.439L232.11,274.189L233.02,273.679L232.06,273.539L230.66,272.729L230.9,272.369L230.82,271.399L230.42,271.159L230.71,270.849L231.14,270.899L231.33,271.639L233.49,272.239L233.56,273.399L233.81,273.289L234.5,274.019L235.29,273.759L234.91,273.339L235.17,272.659L235.92,272.679L235.92,273.289L237.16,274.439L237.46,275.499L238.49,276.659L238.2,277.279L237.85,277.219L237.7,278.579L237.19,279.019L236.68,281.389L237.06,281.469L237.27,281.919L236.7,282.819L237.23,284.079L237.31,285.239L237.12,286.339L236.51,286.709L235.22,286.889L234.02,287.689L232.4,287.549L230.34,288.289L228.71,288.379L227.48,289.169L226.44,289.349L226.01,289.309L225.88,288.429L225.61,288.339L228.18,287.489L230.02,285.809L230.99,284.319L232.14,283.279Z" style="fill-rule:nonzero;"/>
    <path id="JP-33" d="M204.67,282.209L203.26,283.299L202.79,285.019L200.83,284.479L200.31,284.819L198.47,284.479L197.85,283.699L196.25,283.989L195.98,284.299L196.22,284.519L194,285.279L193.31,284.439L193.19,282.699L191.98,281.049L191.99,279.669L191.58,277.769L191.87,276.649L190.27,274.649L190.28,273.049L190.74,271.839L189.73,270.619L190.09,270.369L190.33,269.529L190.71,269.749L192.52,269.119L192.19,267.929L192.46,267.549L193.24,267.879L194.45,267.389L194.66,266.889L194.45,266.409L195.41,266.159L196.19,263.729L197.89,264.359L199.16,264.369L200.23,265.109L200.75,266.019L201.41,265.519L201.61,264.979L202.77,264.489L202.8,264.009L204.3,263.579L204.15,264.469L204.34,264.639L205.13,264.849L206.07,264.679L206.76,265.269L206.98,265.689L206.86,266.299L207.35,266.609L207.16,267.319L207.67,267.949L209.15,267.029L209.69,267.299L210.38,267.169L211.77,266.009L212.07,266.239L211.63,267.039L212.26,267.699L212.18,268.479L211.51,268.409L211.27,268.669L211.03,269.769L210.44,270.019L210.38,270.949L209.46,271.489L209.66,272.079L209.51,272.989L209.16,273.309L209.84,274.159L209.14,275.469L209.32,275.939L210.4,276.899L210.94,278.269L210.44,278.599L210.24,278.319L209.58,278.309L207.82,280.289L207.45,281.179L206.47,281.769L205.19,281.829L204.67,282.209ZM209.93,285.049L209.56,285.109L210.24,284.399L209.38,284.599L208.71,285.889L208.48,285.299L208.85,284.809L208.74,284.569L208.24,284.279L207.07,284.779L206.86,284.529L207.31,283.669L210.99,282.319L210.87,282.789L211.17,283.129L210.77,285.379L210.37,284.859L209.93,285.049Z" style="fill-rule:nonzero;"/>
    <path id="JP-44" d="M141.91,316.829L142.26,316.579L142.74,315.199L141.9,314.469L141.93,313.849L141.57,313.659L141.69,313.279L142.21,313.019L142.35,312.379L142.06,311.429L141.76,311.269L142.23,310.579L142.72,310.449L143.02,308.799L144.63,307.419L145.56,307.189L146.53,307.459L148.44,307.349L148.31,306.889L148.7,306.369L148.4,305.569L148.55,305.199L148.87,304.769L150.65,305.679L153.22,305.799L153.31,305.349L154.31,304.449L154.8,303.489L156.48,302.989L158.08,303.799L159.33,305.469L159.6,306.549L159.51,308.339L159.19,308.489L158.79,309.699L157.42,309.299L157.24,309.589L157.74,310.239L157.62,310.459L156.71,310.559L156.5,311.149L155.77,311.039L155.53,310.619L154.82,310.769L154.7,311.479L155.05,312.979L156.55,313.489L158.43,312.679L159.77,313.639L162.73,312.969L161.37,314.999L160.87,316.259L161.57,316.569L162.65,316.079L162.97,316.359L162.28,316.699L161.88,317.379L162.87,317.669L163.17,317.699L163.46,316.989L164.05,317.829L164.41,317.659L164.38,317.149L164.67,317.009L164.74,317.809L164.24,318.169L163.21,318.059L162.46,319.439L162.58,319.719L163.16,319.909L163.41,320.369L164.13,320.109L164.58,320.479L166.22,320.549L166.29,320.809L164.18,321.079L164.35,321.849L164.96,321.829L164.15,322.589L164.81,323.289L163.38,324.309L162.46,323.839L162.21,325.369L161.65,325.359L161.91,323.799L160.27,323.179L159.47,323.329L159.32,324.069L158.83,324.649L156.6,324.629L156.08,325.069L155.18,324.769L154.99,324.479L155.17,324.009L154.34,323.149L152.32,323.849L151.94,323.839L151.46,323.259L150.06,321.989L149.85,319.719L149.26,318.099L148.4,317.319L148.21,316.149L147.17,315.059L145.76,314.799L144.74,315.359L144.61,316.099L145.44,317.309L145.26,318.159L144.77,318.789L144.39,318.779L143.99,318.149L143.36,318.099L142.76,317.309L141.89,317.139L141.91,316.829Z" style="fill-rule:nonzero;"/>
    <path id="JP-41" d="M121.39,311.539L122.06,312.499L122.22,311.579L122.03,311.389L122.7,309.999L120.95,308.659L121.43,308.509L121.17,308.169L121.44,307.849L121.83,307.989L122.18,308.789L122.46,308.569L121.9,307.389L121.87,307.069L122.41,307.039L122.21,306.159L122.85,306.639L123.17,306.599L123.19,306.329L123.87,306.299L123.9,306.639L124.64,307.269L124.01,308.009L124.62,308.549L125.76,308.739L126.04,308.579L125.99,308.249L128.62,308.329L129.31,308.009L130.17,308.249L130.64,308.039L132.34,309.109L133.11,309.279L133.73,309.989L134.72,309.039L135.46,308.789L135.87,308.999L135.85,311.249L135.34,311.219L134.83,312.079L132.98,313.499L132.39,314.539L132.22,315.769L130.91,315.759L130.71,315.239L129.83,314.659L129.64,315.319L127.85,316.759L129.63,319.819L129.67,320.229L129.25,320.259L126.45,319.579L124.9,317.929L123.75,317.159L123.8,316.799L124.32,316.699L124.42,316.279L124.06,315.409L123.04,315.509L121.66,314.929L121.63,313.669L120.58,312.289L121.17,311.299L121.39,311.539ZM119.78,302.559L119.17,302.529L118.78,301.429L118.41,301.929L118.2,301.189L118.54,300.689L118.35,300.299L119.41,298.959L120.78,299.459L120.52,300.309L121.04,300.759L120.47,301.049L121.25,301.319L121.08,301.859L119.99,301.909L119.78,302.559ZM120.02,309.209L120.39,308.209L121.17,309.159L120.56,309.099L120.48,309.519L120,309.749L119.7,309.449L120.02,309.209Z" style="fill-rule:nonzero;"/>
    <path id="JP-25" d="M251.73,266.759L251.8,267.609L252.51,268.339L251.78,270.839L251.74,272.219L250.96,273.319L250.75,274.239L248.41,275.369L247.08,274.709L246.06,274.719L245.73,274.339L245.26,274.729L245.33,274.989L245.95,275.029L246.03,275.289L245.26,275.909L245.33,276.429L243.99,276.979L243.84,276.569L244.1,276.309L243.49,275.709L243.09,275.859L242.79,275.489L242.48,275.539L242.35,274.659L241.62,275.039L240.91,274.569L241.15,273.499L240.26,271.989L239.97,270.819L240.31,270.569L240.62,268.829L240.19,266.719L240.57,265.279L240.15,265.289L238.97,263.449L239.42,262.709L239.79,262.609L239.85,262.109L240.5,262.109L240.85,262.509L241.42,262.229L242.46,259.469L243.23,260.239L243.69,260.139L244.15,259.259L245.44,259.139L245.79,258.069L246.89,258.389L247.03,257.639L246.2,255.879L246.51,255.209L247.18,255.079L248.99,256.009L249.25,257.079L249.91,257.149L249.79,258.749L250.57,259.039L250.88,258.539L251.43,259.249L251.19,260.139L251.82,260.779L251.73,261.779L252.26,262.629L251.71,263.069L251.67,264.409L251.35,264.929L251.33,265.859L251.01,266.069L251.73,266.759Z" style="fill-rule:nonzero;"/>
    <path id="JP-32" d="M170.76,270.559L171.04,269.769L172.27,268.839L172.35,268.169L172.85,267.499L175.36,265.699L176.78,265.159L177.34,264.649L177.75,263.869L177.88,262.259L176.92,261.869L177.02,261.499L178.14,261.039L178.64,261.339L179.49,261.169L179.6,260.959L178.98,260.609L180.42,260.309L180.66,259.989L182.79,259.479L183.79,259.519L183.72,258.869L184.89,258.989L185.3,258.029L186.23,257.389L187.14,258.449L188.22,258.279L188.63,257.949L190.79,258.269L189.58,258.569L189.17,259.079L189.66,260.069L190.8,260.749L190.64,263.189L190.22,263.809L190.49,265.439L187.39,266.819L187.41,267.109L188.02,267.239L188.25,267.929L187.36,268.629L187.19,270.169L186.61,269.949L185.19,270.369L184.21,269.579L183.42,270.199L182.27,269.499L181.87,269.569L179.47,272.899L178.28,273.149L177.43,274.149L177.81,274.619L178.5,274.829L178.51,275.699L176.75,275.839L175.28,276.899L173.65,276.769L173.4,276.359L172.99,276.499L173.06,276.749L172.55,277.179L172.03,276.759L170.79,276.889L170.58,277.329L170.18,276.849L169.39,276.739L169.08,277.879L167.63,278.739L167.33,279.219L167.88,279.559L167.18,280.589L166.97,282.369L166.34,283.049L165.74,283.229L165.44,283.869L165.93,284.499L165.12,284.949L164.64,285.659L164.49,285.969L164.92,286.859L163.8,288.439L163.11,287.809L162.17,288.509L161.12,288.609L160.25,287.749L160.08,286.979L160.63,285.439L158.76,285.479L158.15,283.829L158.81,283.189L158.83,282.369L159.26,282.209L158.43,279.669L159.58,279.699L161.09,279.249L162.42,277.729L163.55,276.909L163.78,276.249L164.41,276.049L165.57,274.809L166.32,273.569L169.18,271.189L170.76,270.559ZM188.86,243.229L188.47,242.729L187.99,242.659L188.16,241.849L187.86,241.679L187.94,240.809L188.81,239.819L189.89,239.509L190.68,239.839L191.97,241.299L191.67,242.799L191.22,242.989L191.12,242.429L190.98,242.879L190.4,242.969L191,243.109L191.11,243.669L190.85,243.739L189.06,243.789L189.2,243.359L188.86,243.229ZM142.84,210.039L143.16,209.849L143.37,210.069L143.15,210.389L143.25,211.359L142.49,212.239L141.2,211.699L140.86,210.739L141.47,210.329L142.84,210.039ZM185.9,244.349L186.17,244.439L186.08,244.769L185.15,245.229L185.48,245.729L185.26,246.359L184.82,246.299L184.45,245.589L184.1,245.559L183.91,245.789L184.34,246.909L183.31,246.269L183.94,245.029L184.65,244.979L184.63,244.519L185.31,244.689L185.9,244.349ZM187.04,245.729L185.72,246.989L185.94,246.159L185.63,245.359L185.89,245.179L186.15,245.479L186.22,244.979L186.59,244.899L186.98,245.119L187.04,245.729ZM184.45,247.019L185.8,247.549L185.66,247.899L184.48,247.739L184.45,247.019Z" style="fill-rule:nonzero;"/>
    <path id="JP-11" d="M297.32,250.089L297.52,249.569L297,248.519L297.1,248.059L297.85,247.049L299.08,247.029L300,246.019L301.52,245.619L301.98,244.839L303.51,244.769L303.93,244.009L303.95,243.079L305.18,241.109L305.88,241.159L307.57,242.019L308.17,241.869L309.14,242.159L310,241.949L311.81,243.289L314.35,242.809L314.87,243.289L315.36,243.109L315.67,242.529L316.51,242.939L316.34,243.829L317.2,245.789L317.59,245.889L317.98,245.539L318.69,246.939L318.75,247.979L320.42,251.199L320.2,252.529L319.85,252.799L318.93,252.869L318.76,252.449L318.24,252.589L317.79,252.309L317.38,253.049L315.6,252.739L314.93,253.539L314.38,253.249L313.47,253.619L313.19,252.749L311.6,253.499L310.35,253.529L309.82,252.929L309.04,252.779L308.63,251.909L306.53,251.759L305.5,251.199L303.84,250.919L303.14,250.379L301.75,250.959L301.57,251.399L300.48,251.689L299.79,251.159L298.63,250.959L298.34,250.319L297.32,250.089Z" style="fill-rule:nonzero;"/>
    <path id="JP-22" d="M304.85,274.999L303.78,277.049L302.55,278.069L302.07,279.329L302.36,280.089L301.91,280.259L301.43,280.009L301.02,280.199L300.82,280.719L299.56,281.459L299.18,281.319L298.1,280.299L298.33,280.009L298.19,279.639L297.46,279.309L297.47,278.499L298.21,277.769L297.73,276.689L298,276.489L297.8,274.699L298.47,274.089L297.93,272.559L298.42,271.329L300.47,271.489L300.74,270.779L298.96,269.189L296.64,268.679L293.9,269.499L293,271.069L293.4,271.569L293.18,272.169L290.11,273.829L289.31,275.169L289.49,276.169L288.8,277.399L287.28,278.549L286.74,279.919L286.75,280.639L287.5,281.349L287.41,281.569L282.94,279.989L280.88,279.919L279.04,280.369L276.38,279.759L272.82,279.689L272.66,277.369L273.09,276.139L275.84,274.599L277.12,272.679L277.15,271.619L278.61,269.619L279.08,269.379L279,268.909L279.57,268.329L279.06,267.829L279.37,266.849L280.44,266.739L280.9,265.809L281.41,265.799L281.62,265.369L282.9,264.729L284.11,263.719L285.76,263.089L285.9,262.369L285.37,261.699L285.37,261.029L286.11,260.769L285.69,259.459L286.1,258.899L285.77,258.639L286.33,257.989L286.69,258.129L287.27,256.489L288.21,259.669L287.83,260.849L288.06,261.919L287.6,262.849L287.93,264.149L288.61,264.659L289.37,264.139L290.13,264.499L290.82,267.189L291.51,267.689L292.75,267.809L293.47,267.179L293.07,264.519L293.5,263.909L293.45,262.199L294.44,261.289L295.01,262.549L296.04,262.429L296.49,263.399L299.29,262.929L299.66,262.659L300.36,262.729L301.03,262.339L302.54,262.309L302.69,262.549L303.04,264.069L302.76,265.039L302.19,265.659L302.43,267.179L303.13,267.719L303.26,268.399L304.78,268.609L304.11,269.579L303.97,270.589L304.6,270.839L304.47,272.169L305.5,272.999L305.39,274.529L304.85,274.999Z" style="fill-rule:nonzero;"/>
    <path id="JP-09" d="M327.46,225.029L327.37,227.019L327.64,228.009L327.42,229.309L328.04,230.309L327.95,230.629L327,230.839L326.72,231.219L327.29,233.169L327.31,234.979L326.39,236.839L326.18,238.009L325.51,238.209L325.23,237.819L324.78,237.839L324.37,238.309L323.69,238.069L323.64,238.589L323.38,238.719L321.82,238.799L321.69,239.249L320.69,239.719L320.57,240.599L319.44,240.319L318.88,242.009L317.24,242.879L316.51,242.939L315.67,242.529L315.16,241.739L315.25,241.459L314.87,241.219L313.76,241.399L313.05,240.969L312.04,241.259L310.93,240.289L310.97,239.709L309.92,238.929L310.1,237.969L311.29,236.419L310.96,235.659L311.36,234.459L312.18,233.809L311.84,233.129L310.61,233.199L309.14,232.459L309.32,231.089L309.91,230.199L309.63,229.029L310.65,227.619L309.63,227.179L310.21,225.639L311.15,225.209L311.86,224.189L313.21,223.949L314.13,223.199L314.76,223.109L314.99,222.679L315.78,222.479L316.04,222.069L318.84,221.199L319.02,220.289L320.38,219.699L322.8,219.979L325.19,220.979L326.21,221.959L326.44,222.889L327.29,222.839L327.13,224.699L327.46,225.029Z" style="fill-rule:nonzero;"/>
    <path id="JP-13" d="M310.36,279.409L309.68,279.019L309.54,278.609L309.48,277.219L309.71,276.719L310.93,277.149L311.45,278.069L311.29,279.569L310.36,279.409ZM308.25,285.559L307.92,287.849L307.43,287.449L307.37,286.929L308.25,285.559ZM306.83,287.749L307.08,288.019L306.47,288.219L306.83,287.749ZM319.15,256.669L318.33,256.609L318.13,255.679L317.63,256.119L317.33,257.679L317.65,258.429L317.9,258.279L318.34,258.989L317.47,258.789L316.54,259.079L316.53,258.699L316.05,258.469L315.72,257.799L313.04,256.529L312.28,257.439L311.79,256.969L311.57,257.199L312.36,257.819L312.17,259.839L311.87,259.869L310.52,257.979L308.37,257.279L307.51,257.439L306.92,256.449L306.31,256.479L305.85,255.929L305.25,255.799L303.15,254.639L301.57,251.399L301.76,250.959L303.14,250.379L303.85,250.919L305.51,251.209L306.54,251.769L308.64,251.919L309.05,252.789L309.83,252.949L310.36,253.549L311.61,253.509L313.2,252.759L313.48,253.629L314.4,253.259L314.95,253.549L315.62,252.749L317.4,253.069L317.81,252.319L318.26,252.599L318.78,252.459L318.95,252.879L319.88,252.809L320.96,255.069L321.31,255.829L320.75,256.149L321.15,256.529L320.32,257.099L319.15,256.669ZM313.53,294.289L313.8,293.829L313.77,293.299L313.25,292.769L312.32,292.879L311.92,293.879L312.1,294.509L312.79,294.599L313.53,294.289ZM318.03,317.599L319,318.199L319.15,317.499L319.54,317.409L319.29,316.499L318.74,316.449L317.86,315.549L317.38,315.559L317.22,316.279L317.5,316.839L317.92,316.969L318.03,317.599ZM318.03,317.599L319,318.199L319.15,317.499L319.54,317.409L319.29,316.499L318.74,316.449L317.86,315.549L317.38,315.559L317.22,316.279L317.5,316.839L317.92,316.969L318.03,317.599Z" style="fill-rule:nonzero;"/>
    <path id="JP-36" d="M218.39,299.899L216.3,300.769L215.41,301.539L215.23,302.049L213.98,302.959L212.79,303.659L211.87,303.849L211.23,305.639L210.34,305.599L210.13,306.069L210.39,306.209L210.09,306.389L207.98,306.169L207.2,304.979L207.1,304.509L207.57,303.969L207.34,303.169L205.37,303.119L205.27,301.119L204.76,299.859L204.06,300.029L203.81,299.569L203.42,299.699L203,300.509L202.39,300.709L201.6,300.389L200.95,299.489L199.14,299.659L197.8,299.139L197.43,298.599L197.99,297.699L197.99,296.659L197.72,296.169L198.01,295.489L198.63,295.269L198.77,294.759L199.77,293.919L200.35,294.109L200.63,293.609L201.39,293.319L202.77,293.069L203.63,294.039L204.1,294.039L205.27,293.129L206.51,292.989L206.83,292.649L206.77,292.229L207.51,291.649L209.21,291.469L210.84,291.729L211.12,291.429L212.21,292.009L212.63,291.789L212.79,290.829L215.6,290.039L215.6,290.979L216.35,291.469L215.63,294.429L215.72,295.529L216.2,296.059L216.56,295.499L217.15,296.569L217.78,296.929L217.26,297.319L217.96,297.509L217.82,297.969L216.53,298.909L216.44,299.239L216.71,299.449L218.69,299.489L218.83,299.699L218.39,299.899Z" style="fill-rule:nonzero;"/>
    <path id="JP-31" d="M190.81,260.739L192.27,261.029L192.74,260.869L193.21,260.009L194.19,259.509L195.99,259.129L197.43,259.709L199.23,259.879L202.6,259.649L203.27,259.279L204.67,259.449L206.52,259.249L209.3,258.509L209.86,257.739L210.62,257.689L210.75,257.299L211.36,257.169L212.05,257.689L212.43,258.459L212.31,259.479L212.8,261.359L213.53,261.699L213.44,262.779L214.17,263.739L214.02,264.169L214.28,265.329L212.64,266.479L212.06,266.219L211.76,265.989L210.37,267.149L209.68,267.279L209.14,267.009L207.66,267.929L207.15,267.299L207.34,266.589L206.85,266.279L206.97,265.669L206.75,265.249L206.06,264.659L205.12,264.829L204.33,264.619L204.14,264.449L204.29,263.559L202.79,263.989L202.76,264.469L201.6,264.959L201.4,265.499L200.74,265.999L200.22,265.089L199.15,264.349L197.88,264.339L196.18,263.709L195.4,266.139L194.44,266.389L194.65,266.869L194.44,267.369L193.23,267.859L192.45,267.529L192.18,267.909L192.51,269.099L190.7,269.729L190.32,269.509L190.08,270.349L189.72,270.599L189.3,270.099L187.2,270.419L187.2,270.159L187.37,268.619L188.26,267.919L188.03,267.229L187.42,267.099L187.4,266.809L190.5,265.429L190.23,263.799L190.65,263.179L190.81,260.739Z" style="fill-rule:nonzero;"/>
    <path id="JP-16" d="M265.54,228.689L266.85,229.369L267.83,229.139L269.77,229.229L270.94,228.119L271.3,227.109L271.27,225.899L271.64,225.189L272.98,224.479L275.76,223.879L276.46,224.689L277.28,224.939L277.31,226.139L277.7,226.739L277.7,227.509L278.29,229.189L278.09,233.369L276.91,234.069L276.8,234.839L277.01,234.799L277.13,235.289L276.52,235.459L276.13,235.989L276.15,236.739L275.73,237.549L274.83,238.409L273.89,238.339L273.05,237.519L272.34,237.859L271.21,237.509L270.93,236.729L269.58,237.529L269.37,237.489L269.33,236.609L268.74,236.559L267.28,237.249L267.03,236.809L266.48,236.829L264.4,238.849L264.15,239.999L262.76,241.219L262.42,241.139L262.68,240.409L262.34,239.639L261.42,239.129L261.07,239.489L260.82,238.899L260.05,239.459L259.76,240.519L259.18,240.599L259.03,239.709L259.35,239.289L258.9,237.399L259.65,234.449L259.19,233.869L259,232.739L259.77,231.509L259.54,231.049L259.7,230.079L260.25,229.429L260.85,225.939L262.25,224.569L262.98,224.309L264.22,224.409L262.89,226.699L264.31,228.259L265,228.759L265.54,228.689Z" style="fill-rule:nonzero;"/>
    <path id="JP-30" d="M240.05,307.169L239.51,307.549L239.19,308.239L239.28,308.949L238.8,309.029L238.55,308.679L238.87,307.929L238.08,308.039L236.2,307.289L233.85,306.909L231.83,305.699L231.42,304.959L231.57,304.169L230.3,303.539L231.28,303.009L231.53,302.439L230.09,301.219L227.47,300.009L226.79,298.599L226.02,298.219L224.91,298.539L225.12,296.209L226.69,295.569L227.18,294.939L226.45,294.179L225.33,293.929L225.94,293.289L226.24,292.459L227.11,292.529L227.41,292.179L227.28,291.429L226.53,291.229L226.1,290.009L225.1,288.929L225.23,288.449L225.59,288.309L225.86,288.399L225.99,289.279L226.42,289.319L227.46,289.139L228.69,288.349L230.32,288.259L232.38,287.519L234,287.659L235.2,286.859L236.49,286.679L236.89,287.359L237.09,289.079L237.98,289.579L238.19,290.239L237.8,290.839L236.99,290.469L236.44,290.739L236.45,291.449L236.07,292.019L234.58,293.469L234.45,294.009L235.59,294.969L235.53,295.499L236.11,295.709L236.39,296.219L235.68,298.049L236.06,298.179L236.27,298.749L237.42,298.069L238.08,298.079L238.74,298.489L240.75,298.149L240.68,300.069L242.38,302.009L243.67,302.279L243.34,302.729L243.19,303.879L242.23,304.139L242,304.989L242.72,305.269L242.65,305.619L240.57,307.079L240.05,307.169Z" style="fill-rule:nonzero;"/>
    <path id="JP-35" d="M155,295.159L154.41,294.749L154.06,295.629L153.32,295.979L153.03,295.779L153.18,295.189L152.74,295.049L151.97,296.509L150.25,297.539L148.07,296.759L148.15,295.969L145.89,294.689L145.2,295.069L144.88,295.949L143.04,297.729L142.85,297.139L143.31,296.269L143.28,294.589L142.22,293.069L142.34,292.459L143.09,292.329L143.64,291.219L143.4,290.009L142.33,288.839L142.63,288.679L143.01,287.309L145.65,286.899L145.35,286.419L144.13,286.039L144.41,285.219L145.33,285.959L146.41,285.619L146.93,285.769L148.02,286.879L150.98,286.619L151.6,285.789L152.62,285.819L154.06,284.139L153.79,283.479L154.14,282.919L154.84,283.059L155.54,282.349L155.88,281.929L155.91,281.069L156.37,280.959L156.75,280.079L157,279.849L157.97,280.139L158.44,279.649L159.27,282.189L158.84,282.349L158.82,283.169L158.16,283.809L158.77,285.459L160.64,285.419L160.09,286.959L160.26,287.729L161.13,288.589L162.18,288.489L163.12,287.789L163.81,288.419L164.93,286.839L164.5,285.949L164.65,285.639L165.13,284.929L165.94,284.479L166.24,285.159L166.07,285.969L166.31,287.329L167.23,288.109L167.15,288.739L167.65,290.199L168.93,290.509L169.26,290.319L169.5,290.809L169.21,291.329L169.58,291.799L168.6,292.709L168.84,295.669L168.27,296.629L167.18,296.749L167.19,298.369L167.77,299.049L167.44,299.679L166.95,298.609L165.52,297.879L165.15,298.049L161.54,295.289L161.07,295.889L161.04,296.439L160.13,296.239L161.25,295.059L160,294.349L159.48,294.269L157.66,294.819L155.56,295.779L155,295.159ZM170.14,298.779L169.24,298.639L168.72,299.099L168.14,298.229L168.08,297.439L169.26,296.489L170.62,297.619L171.6,297.679L172.86,296.829L173.96,296.889L172.7,297.849L171.99,297.839L171.8,298.149L171.99,298.979L171.12,299.079L171.02,298.259L170.58,298.159L170.04,298.249L170.14,298.779Z" style="fill-rule:nonzero;"/>
    <path id="JP-19" d="M305.24,255.799L305.22,258.409L304.88,259.109L304.39,259.629L303.68,259.729L303.22,260.379L301.43,261.209L301.03,262.339L300.36,262.729L299.66,262.659L299.29,262.929L296.49,263.399L296.04,262.429L295.01,262.549L294.44,261.289L293.45,262.199L293.5,263.909L293.07,264.519L293.47,267.179L292.75,267.809L291.51,267.689L290.82,267.189L290.13,264.499L289.37,264.139L288.61,264.659L287.93,264.149L287.6,262.849L288.06,261.919L287.83,260.849L288.21,259.669L287.27,256.489L286.54,254.719L287.54,253.619L286.66,252.759L287.63,250.789L287.83,250.669L288.55,251.289L290.32,248.579L291.75,249.159L291.74,249.829L292.22,250.359L292.7,250.269L292.92,249.859L294.68,249.889L295.22,251.029L296.19,251.019L296.92,250.079L297.32,250.089L298.34,250.319L298.63,250.959L299.79,251.159L300.48,251.689L301.57,251.399L303.14,254.639L305.24,255.799Z" style="fill-rule:nonzero;"/>
    <path id="JP-06" d="M327.9,199.319L327.6,201.029L327.64,203.039L328.19,203.449L326.86,205.059L325.56,204.799L324.82,205.359L323.35,204.239L322.12,204.699L321.15,203.019L320.82,203.369L320.19,203.439L319.58,203.049L318.64,203.629L318.01,202.949L317.22,203.129L316.77,202.359L316.32,202.489L315.66,202.169L315,201.009L315.59,197.839L316.28,197.329L315.93,196.569L316.27,195.749L316.11,194.439L316.63,193.619L318.21,193.839L319.58,192.979L320.37,191.389L319.22,190.159L317.38,189.679L316.58,188.549L316.98,186.559L316.74,186.269L315.26,185.949L313.45,184.989L314.62,181.909L316.36,180.399L317.5,178.899L318.63,174.819L319.24,173.779L319.94,171.139L319.76,170.559L322.27,170.969L322.64,170.509L323.62,170.269L323.82,171.439L324.53,171.619L325.32,172.319L328.4,173.259L329.48,172.989L329.83,173.759L330.89,173.839L331.47,175.639L332.99,176.169L333.23,176.619L333,176.969L334.06,177.989L334.25,179.049L335.08,179.499L334.4,180.599L334.62,181.569L334.19,182.719L333.79,182.819L333.13,182.469L333.03,182.699L333.64,184.069L333.67,184.609L333.29,185.259L333.56,186.169L334.16,186.559L334.36,187.259L333.75,188.859L332.66,189.999L332.82,190.599L331.77,191.919L331.61,192.939L331.84,194.169L330.73,195.749L330.54,196.769L329.55,197.319L327.83,197.329L327.9,199.319Z" style="fill-rule:nonzero;"/>
</svg>
